<?xml version="1.0" encoding="iso-8859-1"?>
<!-- Generator: Adobe Illustrator 19.0.0, SVG Export Plug-In . SVG Version: 6.00 Build 0)  -->
<svg version="1.1" id="Layer_1" xmlns="http://www.w3.org/2000/svg" xmlns:xlink="http://www.w3.org/1999/xlink" x="0px" y="0px"
	 viewBox="0 0 290.628 290.628" style="enable-background:new 0 0 290.628 290.628;" xml:space="preserve">
<g>
	<g>
		<g>
			<path d="M290.531,88.146l-4.519-22.594l4.547-27.277c0.248-1.491-0.239-3.014-1.308-4.083
				c-7.106-7.116-15.839-10.631-26.803-10.753c-10.861,0.122-19.594,3.638-26.7,10.748c-5.367,5.367-11.775,7.903-20.072,8.002
				c-8.072-0.094-14.344-2.513-19.664-7.608c-0.15-0.216-0.319-0.417-0.506-0.605c-7.064-7.064-15.544-10.416-26.808-10.538
				c-10.861,0.122-19.594,3.638-26.7,10.748c-5.367,5.367-11.78,7.903-20.072,8.002c-8.072-0.094-14.339-2.513-19.664-7.608
				c-0.15-0.216-0.323-0.417-0.511-0.605c-7.059-7.064-15.544-10.416-26.803-10.538c-10.856,0.122-19.594,3.638-26.7,10.748
				c-5.367,5.367-11.78,7.903-20.072,8.002c-8.33-0.094-14.738-2.667-20.175-8.105c-1.341-1.341-3.356-1.688-5.109-0.966
				C1.144,33.846,0,35.609,0,37.502v32.813c0,0.305,0.028,0.619,0.094,0.919l4.519,22.594l-4.547,27.277
				c-0.248,1.491,0.239,3.014,1.308,4.083c7.116,7.111,15.844,10.627,26.803,10.748c10.852-0.122,19.584-3.637,26.7-10.748
				c5.442-5.438,11.85-8.016,20.072-8.105c8.32,0.094,14.419,2.381,19.664,7.397c0.15,0.216,0.323,0.417,0.511,0.605
				c7.177,7.181,15.914,10.73,26.803,10.852c10.852-0.122,19.584-3.637,26.7-10.748c5.438-5.438,11.85-8.016,20.072-8.105
				c8.32,0.094,14.419,2.381,19.664,7.397c0.15,0.216,0.319,0.417,0.506,0.605c7.177,7.181,15.914,10.73,26.808,10.852
				c10.856-0.122,19.589-3.637,26.7-10.748c5.438-5.438,11.85-8.016,20.072-8.105c8.325,0.094,14.737,2.667,20.175,8.105
				c1.341,1.341,3.347,1.744,5.109,1.017c1.748-0.717,2.892-2.433,2.892-4.327V89.065C290.625,88.76,290.597,88.446,290.531,88.146z
				 M9.374,46.849c5.457,3.085,11.664,4.636,18.803,4.716c10.852-0.122,19.584-3.638,26.7-10.748
				c5.367-5.362,11.775-7.903,20.072-8.002c8.391,0.098,14.489,2.348,19.669,7.294c0.15,0.216,0.319,0.417,0.506,0.605
				c7.177,7.181,15.914,10.73,26.803,10.852c10.852-0.122,19.584-3.638,26.7-10.748c5.363-5.362,11.775-7.903,20.072-8.002
				c8.391,0.098,14.489,2.348,19.664,7.294c0.15,0.216,0.323,0.417,0.506,0.605c7.177,7.181,15.914,10.73,26.808,10.852
				c10.856-0.122,19.589-3.638,26.7-10.748c5.363-5.362,11.775-7.903,20.072-8.002c7.519,0.084,13.448,2.128,18.455,6.403
				l-3.319,19.912c-3.942-1.355-9.413-2.813-15.028-2.878l-0.103,9.375c5.784,0.066,11.681,2.119,14.691,3.333l1.922,9.614
				c-4.898-2.297-10.388-3.502-16.612-3.572c-10.791,0.122-19.523,3.67-26.7,10.852c-5.363,5.367-11.77,7.908-20.067,8.002
				c-7.636-0.089-13.664-2.259-18.802-6.816l-1.369-1.397c-7.036-7.041-15.769-10.519-26.808-10.645
				c-10.791,0.122-19.523,3.67-26.7,10.852c-5.367,5.367-11.775,7.908-20.072,8.002c-7.636-0.089-13.659-2.259-18.802-6.816
				l-1.373-1.397C94.726,78.6,85.993,75.122,74.959,74.996c-10.786,0.122-19.523,3.67-26.7,10.852
				c-5.367,5.367-11.775,7.908-20.072,8.002c-5.784-0.066-11.691-2.17-14.686-3.412l-1.922-9.577
				c4.917,2.334,10.397,3.553,16.603,3.623c10.856-0.122,19.594-3.637,26.7-10.748c5.437-5.438,11.845-8.016,20.072-8.105
				c7.866,0.089,13.748,2.138,18.802,6.605l1.373,1.397c7.186,7.181,15.919,10.73,26.803,10.852
				c10.856-0.122,19.594-3.638,26.7-10.748c5.433-5.438,11.841-8.016,20.067-8.105c7.87,0.089,13.753,2.138,18.802,6.605
				l1.373,1.397c7.181,7.181,15.914,10.73,26.803,10.852c6.431-0.075,12.061-4.467,18.023-9.127
				c5.011-3.914,10.195-7.959,16.219-9.97l-2.967-8.888c-7.556,2.517-13.65,7.275-19.027,11.47
				c-4.678,3.652-9.094,7.106-12.253,7.139c-7.636-0.089-13.664-2.259-18.802-6.816l-1.369-1.397
				c-7.036-7.041-15.769-10.519-26.808-10.645c-10.791,0.122-19.523,3.67-26.7,10.852c-5.367,5.367-11.775,7.908-20.072,8.002
				c-7.636-0.089-13.659-2.259-18.802-6.816l-1.373-1.397c-7.036-7.041-15.769-10.519-26.803-10.645
				c-10.786,0.122-19.523,3.67-26.7,10.852c-5.367,5.367-11.775,7.908-20.072,8.002c-7.636-0.07-13.65-2.278-18.797-6.844V46.849z
				 M281.235,112.431c-5.441-3.088-11.652-4.644-18.787-4.719c-10.786,0.122-19.519,3.67-26.7,10.852
				c-5.367,5.367-11.775,7.908-20.072,8.002c-8.072-0.094-14.344-2.512-19.664-7.608c-0.15-0.216-0.319-0.417-0.506-0.605
				c-7.036-7.041-15.769-10.519-26.808-10.645c-10.786,0.122-19.519,3.67-26.7,10.852c-5.367,5.367-11.78,7.908-20.072,8.002
				c-8.072-0.094-14.339-2.512-19.664-7.608c-0.15-0.216-0.323-0.417-0.511-0.605c-7.036-7.041-15.769-10.519-26.803-10.645
				c-10.781,0.122-19.514,3.67-26.7,10.852c-5.367,5.377-11.78,7.912-20.072,8.011c-7.519-0.084-13.444-2.128-18.455-6.408
				l3.309-19.866c3.956,1.387,9.459,2.878,15.141,2.939c10.856-0.122,19.594-3.637,26.7-10.748
				c5.438-5.438,11.845-8.016,20.072-8.105c7.866,0.089,13.748,2.137,18.802,6.605l1.373,1.397
				c7.186,7.181,15.919,10.73,26.803,10.852c10.856-0.122,19.594-3.638,26.7-10.748c5.433-5.438,11.841-8.016,20.067-8.105
				c7.87,0.089,13.753,2.137,18.802,6.605l1.373,1.397c7.181,7.181,15.914,10.73,26.803,10.852
				c10.861-0.122,19.594-3.637,26.7-10.748c5.433-5.438,11.841-8.016,20.067-8.105c7.72,0.089,13.711,2.353,18.802,6.867V112.431z"
				/>
			<path d="M286.017,196.905l4.547-27.277c0.248-1.491-0.239-3.014-1.308-4.083c-7.181-7.181-15.914-10.73-26.803-10.852
				c-10.786,0.122-19.519,3.67-26.7,10.852c-5.363,5.367-11.77,7.908-20.067,8.002c-8.067-0.094-14.339-2.512-19.664-7.608
				c-0.15-0.216-0.319-0.417-0.506-0.605c-7.036-7.041-15.769-10.519-26.808-10.645c-10.786,0.122-19.519,3.67-26.7,10.852
				c-5.367,5.367-11.775,7.908-20.072,8.002c-8.067-0.094-14.334-2.512-19.664-7.608c-0.15-0.216-0.323-0.417-0.511-0.605
				c-7.036-7.041-15.769-10.519-26.803-10.645c-10.781,0.122-19.514,3.67-26.7,10.852c-5.367,5.367-11.775,7.908-20.072,8.002
				c-8.325-0.094-14.737-2.667-20.175-8.105c-1.341-1.341-3.356-1.683-5.109-0.966C1.144,165.199,0,166.962,0,168.855v32.813
				c0,0.305,0.028,0.619,0.094,0.919l4.519,22.594l-4.547,27.277c-0.248,1.491,0.239,3.014,1.308,4.083
				c7.036,7.045,15.769,10.528,26.803,10.65c10.931-0.122,19.664-3.605,26.7-10.645c5.438-5.438,11.845-8.016,20.072-8.105
				c8.311,0.094,14.409,2.377,19.655,7.383c0.155,0.22,0.328,0.427,0.52,0.619c7.116,7.111,15.844,10.627,26.803,10.748
				c10.931-0.122,19.664-3.605,26.7-10.645c5.433-5.438,11.841-8.016,20.067-8.105c8.203,0.094,14.466,2.442,19.659,7.388
				c0.155,0.216,0.323,0.422,0.516,0.614c7.111,7.111,15.844,10.627,26.803,10.748c10.931-0.122,19.664-3.605,26.7-10.645
				c5.433-5.438,11.841-8.016,20.067-8.105c8.33,0.094,14.742,2.667,20.175,8.105c1.341,1.341,3.356,1.744,5.109,1.017
				c1.758-0.722,2.902-2.433,2.902-4.331v-32.813c0-0.305-0.028-0.619-0.094-0.919L286.017,196.905z M281.257,243.771
				c-5.459-3.075-11.67-4.626-18.809-4.706c-10.791,0.122-19.523,3.67-26.7,10.852c-5.363,5.367-11.583,7.8-20.067,7.898
				c-8.128-0.094-14.395-2.475-19.655-7.495c-0.155-0.22-0.328-0.427-0.52-0.619c-7.036-7.036-15.769-10.514-26.803-10.641
				c-10.791,0.122-19.523,3.67-26.7,10.852c-5.363,5.367-11.588,7.8-20.072,7.898c-8.128-0.094-14.395-2.475-19.655-7.495
				c-0.155-0.22-0.328-0.427-0.52-0.619c-7.036-7.036-15.769-10.514-26.803-10.641c-10.786,0.122-19.523,3.67-26.7,10.852
				c-5.367,5.377-11.592,7.809-20.077,7.908c-7.688-0.089-13.477-2.048-18.455-6.3l3.309-19.87
				c3.956,1.387,9.459,2.878,15.141,2.939c10.852-0.122,19.584-3.638,26.7-10.748c5.442-5.438,11.85-8.016,20.175-8.105
				l-0.103-9.375c-10.781,0.122-19.514,3.67-26.7,10.852c-5.367,5.367-11.78,7.908-20.072,8.002
				c-5.784-0.066-11.691-2.17-14.686-3.413l-1.908-9.581c4.913,2.33,10.397,3.553,16.603,3.623
				c10.852-0.122,19.584-3.638,26.7-10.748c5.442-5.438,11.85-8.016,20.072-8.105c7.866,0.089,13.748,2.137,18.802,6.605
				l1.373,1.397c7.177,7.181,15.914,10.73,26.803,10.852c10.852-0.122,19.584-3.638,26.7-10.748
				c5.438-5.438,11.85-8.016,20.072-8.105c8.592,0.098,14.812,2.531,20.175,7.898l6.633-6.628
				c-7.036-7.041-15.769-10.519-26.808-10.645c-10.786,0.122-19.519,3.67-26.7,10.852c-5.367,5.367-11.78,7.908-20.072,8.002
				c-7.636-0.089-13.664-2.259-18.802-6.811l-1.373-1.402c-7.036-7.041-15.769-10.519-26.803-10.645
				c-10.781,0.122-19.514,3.67-26.7,10.852c-5.367,5.367-11.78,7.908-20.072,8.002c-7.645-0.08-13.664-2.287-18.806-6.848v-21.408
				c5.456,3.08,11.667,4.636,18.802,4.716c10.856-0.122,19.594-3.638,26.7-10.748c5.442-5.438,11.85-8.016,20.072-8.105
				c8.32,0.094,14.419,2.381,19.664,7.397c0.15,0.216,0.323,0.417,0.511,0.605c7.186,7.181,15.919,10.73,26.803,10.852
				c10.856-0.122,19.594-3.638,26.7-10.748c5.438-5.438,11.85-8.016,20.072-8.105c8.32,0.094,14.419,2.381,19.664,7.397
				c0.15,0.216,0.323,0.417,0.511,0.605c7.181,7.181,15.914,10.73,26.803,10.852c10.861-0.122,19.594-3.638,26.7-10.748
				c5.438-5.438,11.85-8.016,20.072-8.105c7.462,0.084,13.387,2.161,18.455,6.511l-3.319,19.913
				c-3.952-1.355-9.455-2.817-15.131-2.883c-10.786,0.122-19.519,3.67-26.7,10.852c-5.367,5.367-11.775,7.908-20.067,8.002
				c-6.389-0.075-12.178-1.552-16.294-4.167l-5.025,7.913c5.569,3.539,13.097,5.541,21.314,5.63
				c10.856-0.122,19.589-3.638,26.7-10.748c5.438-5.438,11.85-8.016,20.072-8.105c5.784,0.066,11.681,2.119,14.691,3.333
				l1.922,9.609c-4.898-2.297-10.383-3.502-16.612-3.572c-10.786,0.122-19.519,3.67-26.7,10.852
				c-5.367,5.367-11.775,7.908-20.072,8.002c-7.641-0.089-13.664-2.259-18.802-6.811L195.511,217
				c-7.036-7.041-15.769-10.519-26.808-10.645c-10.786,0.122-19.519,3.67-26.7,10.852c-5.367,5.367-11.78,7.908-20.072,8.002
				c-8.109-0.094-19.35-2.7-24.862-8.213l-6.628,6.628c7.912,7.917,21.853,10.852,31.491,10.959
				c10.852-0.122,19.584-3.638,26.7-10.748c5.438-5.438,11.85-8.016,20.072-8.105c7.87,0.089,13.753,2.137,18.802,6.605l1.369,1.397
				c7.177,7.181,15.914,10.73,26.808,10.852c10.856-0.122,19.589-3.638,26.7-10.748c5.438-5.438,11.85-8.016,20.072-8.105
				c7.72,0.089,13.716,2.358,18.802,6.867V243.771z"/>
		</g>
	</g>
</g>
<g>
</g>
<g>
</g>
<g>
</g>
<g>
</g>
<g>
</g>
<g>
</g>
<g>
</g>
<g>
</g>
<g>
</g>
<g>
</g>
<g>
</g>
<g>
</g>
<g>
</g>
<g>
</g>
<g>
</g>
</svg>
