<?xml version="1.0" encoding="iso-8859-1"?>
<!-- Generator: Adobe Illustrator 19.0.0, SVG Export Plug-In . SVG Version: 6.00 Build 0)  -->
<svg version="1.1" id="Layer_1" xmlns="http://www.w3.org/2000/svg" xmlns:xlink="http://www.w3.org/1999/xlink" x="0px" y="0px"
	 viewBox="0 0 290.627 290.627" style="enable-background:new 0 0 290.627 290.627;" xml:space="preserve">
<g>
	<g>
		<g>
			<path d="M239.063,121.875v-4.688h-14.198C222.417,71.039,185.034,0,145.313,0c-39.721,0-77.105,71.039-79.552,117.188H51.563
				v4.688c0,44.906,31.969,84.173,75,92.977v42.961h-18.75c-21.53,0-32.813,20.897-32.813,28.125v4.688h140.625v-4.688
				c0-7.228-11.283-28.125-32.813-28.125h-18.75v-42.961C207.094,206.053,239.063,166.791,239.063,121.875z M145.313,9.375
				c33.563,0,67.636,66.839,70.148,107.813H75.164C77.677,76.214,111.75,9.375,145.313,9.375z M182.813,267.187v0.001
				c11.452,0,18.502,8.4,21.595,14.063H86.227c3.098-5.677,10.144-14.063,21.586-14.063h28.125v-60.253l-3.952-0.628
				c-38.981-6.183-68.733-40.031-70.922-79.744h168.492c-2.184,39.722-31.941,73.566-70.917,79.748l-3.952,0.623v60.253H182.813z"/>
			<rect x="75" y="135.938" width="42.188" height="9.375"/>
			<rect x="126.563" y="135.938" width="9.375" height="9.375"/>
			<rect x="145.313" y="135.938" width="9.375" height="9.375"/>
			<path d="M162.69,24.811l-6.628,6.628c13.331,13.331,22.467,31.416,22.561,31.598l8.386-4.195
				C186.609,58.045,177.128,39.244,162.69,24.811z"/>
		</g>
	</g>
</g>
<g>
</g>
<g>
</g>
<g>
</g>
<g>
</g>
<g>
</g>
<g>
</g>
<g>
</g>
<g>
</g>
<g>
</g>
<g>
</g>
<g>
</g>
<g>
</g>
<g>
</g>
<g>
</g>
<g>
</g>
</svg>
