<?xml version="1.0" encoding="iso-8859-1"?>
<!-- Generator: Adobe Illustrator 19.0.0, SVG Export Plug-In . SVG Version: 6.00 Build 0)  -->
<svg version="1.1" id="Layer_1" xmlns="http://www.w3.org/2000/svg" xmlns:xlink="http://www.w3.org/1999/xlink" x="0px" y="0px"
	 viewBox="0 0 289.251 289.251" style="enable-background:new 0 0 289.251 289.251;" xml:space="preserve">
<g>
	<g>
		<g>
			<path d="M270.503,37.5h-1.106c-6.773-0.009-11.156-0.136-14.33-3.314c-3.178-3.178-3.333-7.519-3.314-14.33V18.75
				c0-11.916-6.834-18.75-18.75-18.75c-8.686,0-14.063,9.731-14.063,18.75c0,4.917,0.68,9.605,1.959,14.081l-3.333-3.333
				c-5.32-5.32-15.37-5.32-20.691,0c-5.321,5.32-5.32,15.37,0,20.691l7.05,7.05c-2.714-0.628-5.522-0.989-8.423-0.989
				c-20.677,0-37.5,16.823-37.5,37.5c0,0.975,0.075,1.936,0.145,2.892l-3.863-3.862c-5.32-5.32-15.37-5.32-20.691,0
				c-5.321,5.32-5.32,15.37,0,20.691l3.863,3.862c-0.956-0.07-1.917-0.145-2.892-0.145c-20.677,0-37.5,16.823-37.5,37.5
				c0,2.902,0.361,5.709,0.989,8.423l-7.05-7.05c-5.32-5.32-15.37-5.32-20.691,0c-5.32,5.32-5.32,15.37,0,20.691l3.333,3.333
				c-4.477-1.28-9.164-1.959-14.081-1.959c-12.309,0-18.75,7.073-18.75,14.063c0,12.441,6.309,18.75,18.75,18.75h1.106
				c4.209-0.014,7.5,0.042,10.158,0.858L0.001,282.623l6.628,6.628l70.828-70.828c0.811,2.639,0.867,5.92,0.858,10.158v1.106
				c0,11.916,6.834,18.75,18.75,18.75c8.686,0,14.063-9.731,14.063-18.75c0-4.917-0.68-9.605-1.959-14.081l3.333,3.333
				c2.658,2.658,6.502,3.989,10.345,3.989s7.688-1.327,10.345-3.989c5.32-5.32,5.32-15.37,0-20.691l-7.05-7.05
				c2.714,0.628,5.522,0.989,8.423,0.989c20.677,0,37.5-16.823,37.5-37.5c0-0.975-0.075-1.936-0.145-2.892l3.863,3.863
				c2.658,2.658,6.502,3.989,10.345,3.989s7.687-1.327,10.345-3.989c5.32-5.32,5.32-15.37,0-20.691l-3.863-3.863
				c0.956,0.07,1.917,0.145,2.892,0.145c20.677,0,37.5-16.823,37.5-37.5c0-2.902-0.361-5.709-0.989-8.423l7.05,7.05
				c2.658,2.658,6.502,3.989,10.345,3.989c3.843,0,7.688-1.327,10.345-3.989c5.32-5.32,5.32-15.37,0-20.691l-3.333-3.333
				c4.477,1.28,9.164,1.959,14.081,1.959c12.309,0,18.75-7.073,18.75-14.063C289.253,43.809,282.943,37.5,270.503,37.5z
				 M97.065,239.063c-7.781,0-9.375-3.75-9.375-9.375V228.6c0.019-6.975,0.033-14.878-6.061-20.972
				c-5.784-5.794-13.214-6.066-19.931-6.066c-0.347,0-0.698,0-1.05,0h-1.083c-4.819,0-9.375,0-9.375-9.375
				c0-2.269,3.286-4.688,9.375-4.688c11.484,0,21.173,4.111,29.62,12.563c8.456,8.452,12.567,18.145,12.567,29.625
				C101.753,234.244,99.342,239.063,97.065,239.063z M126.564,204.877c1.635,1.635,1.635,5.798,0,7.434
				c-1.631,1.631-5.803,1.631-7.434,0l-42.188-42.188c-1.636-1.636-1.636-5.798,0-7.434c0.816-0.816,2.264-1.223,3.717-1.223
				s2.902,0.408,3.717,1.223L126.564,204.877z M134.565,182.813c-15.511,0-28.125-12.614-28.125-28.125s12.614-28.125,28.125-28.125
				c15.511,0,28.125,12.614,28.125,28.125S150.076,182.813,134.565,182.813z M189.844,149.03c-1.631,1.631-5.803,1.631-7.434,0
				l-42.188-42.187c-1.636-1.636-1.636-5.798,0-7.434c0.816-0.816,2.264-1.223,3.717-1.223c1.453,0,2.902,0.408,3.717,1.223
				l42.188,42.188C191.48,143.231,191.48,147.394,189.844,149.03z M195.503,121.875c-15.511,0-28.125-12.614-28.125-28.125
				s12.614-28.125,28.125-28.125s28.125,12.614,28.125,28.125S211.013,121.875,195.503,121.875z M253.126,85.748
				c-1.631,1.631-5.803,1.631-7.434,0L203.503,43.56c-1.636-1.636-1.636-5.798,0-7.434c0.816-0.816,2.264-1.223,3.717-1.223
				c1.453,0,2.902,0.408,3.717,1.223l42.188,42.188C254.761,79.95,254.761,84.113,253.126,85.748z M270.503,60.938
				c-11.484,0-21.173-4.111-29.62-12.563c-8.456-8.452-12.567-18.145-12.567-29.625c0-4.556,2.409-9.375,4.688-9.375
				c7.781,0,9.375,3.75,9.375,9.375v1.087c-0.019,6.975-0.033,14.883,6.061,20.977c6.089,6.094,13.931,6.188,20.981,6.061h1.083
				c4.819,0,9.375,0,9.375,9.375C279.878,58.519,276.591,60.938,270.503,60.938z"/>
			<path d="M120.503,154.688h-9.375c0,12.923,10.514,23.438,23.437,23.438v-9.375C126.811,168.75,120.503,162.441,120.503,154.688z"
				/>
			<path d="M181.44,93.75h-9.375c0,12.923,10.514,23.438,23.438,23.438v-9.375C187.748,107.813,181.44,101.503,181.44,93.75z"/>
		</g>
	</g>
</g>
<g>
</g>
<g>
</g>
<g>
</g>
<g>
</g>
<g>
</g>
<g>
</g>
<g>
</g>
<g>
</g>
<g>
</g>
<g>
</g>
<g>
</g>
<g>
</g>
<g>
</g>
<g>
</g>
<g>
</g>
</svg>
