<?xml version="1.0" encoding="iso-8859-1"?>
<!-- Generator: Adobe Illustrator 19.0.0, SVG Export Plug-In . SVG Version: 6.00 Build 0)  -->
<svg version="1.1" id="Layer_1" xmlns="http://www.w3.org/2000/svg" xmlns:xlink="http://www.w3.org/1999/xlink" x="0px" y="0px"
	 viewBox="0 0 290.628 290.628" style="enable-background:new 0 0 290.628 290.628;" xml:space="preserve">
<g>
	<g>
		<g>
			<path d="M95.11,151.374c-9.464,9.469-11.072,17.822-5.569,28.847l8.386-4.195c-3.717-7.439-2.897-11.316,3.811-18.028
				l14.063-14.063l-6.628-6.628L95.11,151.374z"/>
			<path d="M290.27,82.58c-0.727-1.753-2.438-2.892-4.331-2.892h-14.063V65.625c0-2.592-2.091-4.687-4.683-4.687h-14.067v-18.75
				c0-2.592-2.086-4.688-4.678-4.688h-18.759V23.438c0-2.592-2.086-4.688-4.678-4.688h-14.072V4.688
				c0-1.894-1.134-3.609-2.887-4.331c-1.753-0.727-3.764-0.323-5.105,1.017c-12.773,12.773-20.119,31.059-20.156,50.18
				c-0.014,6.07,1.181,12.037,3.375,17.691c-6.319-2.433-12.539-3.619-17.423-3.619c-0.028,0-0.052,0-0.08,0
				c-10.402,0-21.248,5.334-31.369,15.45l-56.241,56.241c-10.097,10.092-15.436,20.962-15.436,31.434
				c0,4.214,0.614,10.594,3.338,17.695c-6.745-2.484-14.203-3.783-22.106-3.698c-16.148,0.075-32.723,7.43-45.473,20.189
				c-1.341,1.341-1.744,3.356-1.017,5.109s2.438,2.892,4.331,2.892h14.063v14.063c0,2.592,2.095,4.688,4.688,4.688h14.062v18.75
				c0,2.592,2.091,4.688,4.683,4.688h18.755v14.063c0,2.592,2.086,4.688,4.678,4.688h14.072v14.063c0,1.894,1.134,3.609,2.887,4.331
				c0.581,0.244,1.191,0.356,1.795,0.356c1.219,0,2.414-0.478,3.314-1.373c12.773-12.773,20.119-31.059,20.161-50.18
				c0.014-5.878-1.111-11.653-3.173-17.147c5.405,2.006,11.133,3.075,17.189,3.075c10.313,0,21.473-5.48,31.434-15.436l56.241-56.25
				c10.097-10.097,15.436-20.972,15.436-31.444c0-4.228-0.614-10.664-3.361-17.794c6.68,2.456,14.053,3.736,21.853,3.736
				c0.103,0,0.211,0,0.314,0c16.144,0,32.719-7.397,45.469-20.156C290.593,86.316,290.996,84.333,290.27,82.58z M89.063,272.512
				v-5.325c0-2.592-2.105-4.688-4.697-4.688H70.313v-14.063c0-2.592-2.105-4.688-4.697-4.688h-18.74v-18.75
				c0-2.592-2.1-4.688-4.692-4.688H28.126v-14.063c0-2.592-2.095-4.688-4.688-4.688h-5.705c9.047-6.042,19.228-9.375,29.161-9.375
				c0.094,0,0.178,0,0.277,0c11.798,0,22.383,3.37,30.356,9.619l-10.533,10.519l6.628,6.619l10.748-10.753l1.373,1.373
				c8.35,8.356,12.756,18.552,12.728,29.492C98.443,251.128,93.751,262.8,89.063,272.512z M202.909,146.686l-8.405,8.405
				l-13.087-13.092l-6.628,6.628l13.088,13.092l-21.492,21.497l-22.462-22.467l-6.628,6.628l22.462,22.467l-5.086,5.091
				l-6.061-6.061l-6.628,6.628l6.061,6.061l-1.373,1.373c-8.072,8.067-17.109,12.689-24.806,12.689
				c-11.311,0-20.958-4.153-29.494-12.689l-4.688-4.688c-11.039-11.039-12.689-23.222-12.689-29.498
				c0-10.027,6.9-19.027,12.689-24.811l29.494-29.498l10.744,10.748l6.628-6.628l-10.744-10.748l12.117-12.122l15.436,15.436
				l6.628-6.628l-15.436-15.436l1.373-1.359c8.325-8.32,16.88-12.703,24.741-12.703c0.014,0,0.033,0,0.052,0
				c8.367,0,21.192,4.388,29.508,12.703l4.688,4.683c11.039,11.034,12.689,23.212,12.689,29.489
				C215.598,131.892,208.698,140.897,202.909,146.686z M243.737,98.438c-0.094,0-0.178,0-0.277,0
				c-11.808,0-22.406-3.375-30.38-9.637l15.202-15.188l-6.628-6.619l-15.413,15.417l-1.355-1.35
				c-8.344-8.348-12.755-18.548-12.731-29.489c0.033-12.075,4.72-23.747,9.408-33.459v5.325c0,2.592,2.109,4.688,4.702,4.688h14.048
				v14.063c0,2.592,2.105,4.688,4.697,4.688h18.741v18.75c0,2.592,2.105,4.688,4.697,4.688h14.053v14.063
				c0,2.592,2.1,4.688,4.692,4.688h5.7C263.846,95.105,253.665,98.438,243.737,98.438z"/>
			
				<rect x="157.418" y="112.507" transform="matrix(-0.7069 -0.7073 0.7073 -0.7069 197.1176 316.071)" width="13.256" height="9.375"/>
		</g>
	</g>
</g>
<g>
</g>
<g>
</g>
<g>
</g>
<g>
</g>
<g>
</g>
<g>
</g>
<g>
</g>
<g>
</g>
<g>
</g>
<g>
</g>
<g>
</g>
<g>
</g>
<g>
</g>
<g>
</g>
<g>
</g>
</svg>
