<?xml version="1.0" encoding="iso-8859-1"?>
<!-- Generator: Adobe Illustrator 19.0.0, SVG Export Plug-In . SVG Version: 6.00 Build 0)  -->
<svg version="1.1" id="Layer_1" xmlns="http://www.w3.org/2000/svg" xmlns:xlink="http://www.w3.org/1999/xlink" x="0px" y="0px"
	 viewBox="0 0 290.626 290.626" style="enable-background:new 0 0 290.626 290.626;" xml:space="preserve">
<g>
	<g>
		<g>
			<path d="M224.269,69.455C219.221,30.342,185.781,0,145.313,0c-40.467,0-73.908,30.342-78.957,69.455
				c-0.431,1.814-0.731,3.656-0.731,5.545v4.688v131.25c0,43.941,35.747,79.688,79.688,79.688c43.941,0,79.687-35.748,79.687-79.688
				V79.688V75C225.001,73.111,224.701,71.269,224.269,69.455z M167.377,129.877c8.4-8.395,21.802-3.956,28.177-1.097
				c-12.773,13.073-30.562,21.22-50.24,21.22c-3.234,0-6.394-0.295-9.511-0.722l22.481-33.717
				c2.02-1.781,13.584-10.838,32.166-3.394c5.841,2.334,10.889,3.473,15.164,3.497c-1.177,1.969-2.447,3.867-3.807,5.705
				c-6.633-3.389-27.127-12.061-41.058,1.88L167.377,129.877z M146.766,116.068l-5.133,7.669
				c-4.022-5.827-12.117-14.77-26.503-20.456c-0.993-1.956-2.573-6.269-2.498-14.176c0.023-2.681,2.808-9.417,9.244-9.417h6.97
				c-1.387,2.536-2.283,5.597-2.283,9.375C126.563,106.102,137.344,113.518,146.766,116.068z M174.938,99.938
				c-11.095,0.403-18.67,5.25-21.858,7.772c-4.537-0.455-17.142-3.108-17.142-18.647c0-8.564,7.205-9.342,9.375-9.375h22.167
				c6.543,3.698,8.231,9.637,8.634,12.107c0.684,4.209-0.436,7.153-1.303,8.016L174.938,99.938z M135.915,132.286l-9.994,14.93
				c-20.302-5.841-36.863-20.555-45.15-39.698C120.037,105.928,133.553,127.73,135.915,132.286z M193.932,103.458
				c-3.253-1.303-6.347-2.198-9.272-2.77c0.984-3.08,1.317-6.652,0.708-10.397c-0.633-3.886-2.123-7.467-4.28-10.603h34.537
				c0.001,8.226-1.494,16.092-4.101,23.437c0,0.014-0.708,1.5-1.955,2.344C208.641,106.097,204.777,107.803,193.932,103.458z
				 M145.313,9.375c27.792,0,51.797,16.247,63.202,39.708c-10.922-7.514-26.564-12.938-44.813-15.141
				c-1.669-8.644-9.272-15.192-18.389-15.192s-16.72,6.548-18.389,15.188c-18.253,2.203-33.891,7.627-44.813,15.141
				C93.516,25.622,117.521,9.375,145.313,9.375z M153.497,33.023c-2.686-0.136-5.414-0.211-8.184-0.211s-5.498,0.076-8.184,0.211
				c1.594-2.902,4.645-4.898,8.184-4.898S151.904,30.122,153.497,33.023z M145.313,42.188c34.711,0,64.519,12.464,69.563,28.125
				H75.751C80.795,54.652,110.602,42.188,145.313,42.188z M106.084,79.688c-1.828,3.08-2.798,6.445-2.827,9.328
				c-0.042,4.486,0.389,8.067,1.012,11.044c-7.552-1.678-16.387-2.423-26.686-1.753c-1.635-5.94-2.582-12.165-2.582-18.619H106.084z
				 M215.627,121.875h-0.001c0,38.77-31.542,70.313-70.313,70.313v9.375c30.417,0,56.888-17.147,70.313-42.267v4.767
				c0,38.77-31.542,70.313-70.313,70.313v9.375c30.417,0,56.888-17.147,70.313-42.267v9.455c0,38.77-31.542,70.313-70.313,70.313
				s-70.312-31.544-70.312-70.314v-93.83c13.425,25.12,39.895,42.267,70.313,42.267c30.418,0,56.888-17.147,70.313-42.267V121.875z"
				/>
			<path d="M93.751,210.938h-9.375c0,33.6,27.338,60.938,60.938,60.938V262.5C116.883,262.5,93.751,239.367,93.751,210.938z"/>
			<rect x="84.376" y="182.813" width="9.375" height="18.75"/>
		</g>
	</g>
</g>
<g>
</g>
<g>
</g>
<g>
</g>
<g>
</g>
<g>
</g>
<g>
</g>
<g>
</g>
<g>
</g>
<g>
</g>
<g>
</g>
<g>
</g>
<g>
</g>
<g>
</g>
<g>
</g>
<g>
</g>
</svg>
