<?xml version="1.0" encoding="iso-8859-1"?>
<!-- Generator: Adobe Illustrator 19.0.0, SVG Export Plug-In . SVG Version: 6.00 Build 0)  -->
<svg version="1.1" id="Layer_1" xmlns="http://www.w3.org/2000/svg" xmlns:xlink="http://www.w3.org/1999/xlink" x="0px" y="0px"
	 viewBox="0 0 290.626 290.626" style="enable-background:new 0 0 290.626 290.626;" xml:space="preserve">
<g>
	<g>
		<g>
			<path d="M267.188,150H262.5c0-5.625-2.541-10.622-6.478-14.063c3.938-3.441,6.478-8.438,6.478-14.063v-37.5
				c0-5.625-2.541-10.622-6.478-14.063c3.938-3.441,6.478-8.438,6.478-14.063v-32.81h-4.688c-11.466,0-21.178-8.212-23.081-19.528
				L234.075,0h-37.2c-5.63,0-10.622,2.541-14.063,6.478C179.372,2.542,174.38,0,168.75,0h-46.875c-5.63,0-10.622,2.541-14.063,6.478
				C104.372,2.542,99.38,0,93.75,0H46.875c-10.341,0-18.75,8.409-18.75,18.75v37.5c0,5.625,2.541,10.622,6.478,14.063
				c-3.938,3.441-6.478,8.438-6.478,14.063v37.5c0,5.625,2.541,10.622,6.478,14.063c-3.938,3.441-6.478,8.438-6.478,14.063h-4.688
				C10.514,150,0,160.514,0,173.438V187.5c0,11.316,8.067,20.784,18.75,22.964v66.098c0,7.753,6.309,14.063,14.063,14.063h225
				c7.753,0,14.063-6.309,14.063-14.063v-66.098c10.683-2.18,18.75-11.644,18.75-22.964v-14.063
				C290.625,160.514,280.111,150,267.188,150z M187.5,18.75c0-5.17,4.205-9.375,9.375-9.375h29.513
				c3.633,12.305,14.086,21.305,26.737,23.105v23.77c0,5.17-4.205,9.375-9.375,9.375h-46.875c-5.17,0-9.375-4.205-9.375-9.375V18.75
				z M187.5,84.375c0-5.17,4.205-9.375,9.375-9.375h46.875c5.17,0,9.375,4.205,9.375,9.375v37.5c0,5.17-4.205,9.375-9.375,9.375
				h-46.875c-5.17,0-9.375-4.205-9.375-9.375V84.375z M196.875,140.625h46.875c5.17,0,9.375,4.205,9.375,9.375H187.5
				C187.5,144.831,191.705,140.625,196.875,140.625z M182.813,68.522c0.558,0.637,1.153,1.233,1.791,1.791
				c-0.637,0.558-1.233,1.153-1.791,1.791c-0.558-0.637-1.153-1.233-1.791-1.791C181.659,69.755,182.255,69.159,182.813,68.522z
				 M182.812,134.147c0.558,0.637,1.154,1.233,1.791,1.791c-0.637,0.558-1.233,1.153-1.791,1.791
				c-0.558-0.637-1.153-1.233-1.791-1.791C181.658,135.38,182.254,134.785,182.812,134.147z M112.5,18.75
				c0-5.17,4.205-9.375,9.375-9.375h46.875c5.17,0,9.375,4.205,9.375,9.375v37.5c0,5.17-4.205,9.375-9.375,9.375h-46.875
				c-5.17,0-9.375-4.205-9.375-9.375V18.75z M112.5,84.375c0-5.17,4.205-9.375,9.375-9.375h46.875c5.17,0,9.375,4.205,9.375,9.375
				v37.5c0,5.17-4.205,9.375-9.375,9.375h-46.875c-5.17,0-9.375-4.205-9.375-9.375V84.375z M121.875,140.625h46.875
				c5.17,0,9.375,4.205,9.375,9.375H112.5C112.5,144.831,116.705,140.625,121.875,140.625z M107.813,68.522
				c0.558,0.637,1.153,1.233,1.791,1.791c-0.637,0.558-1.233,1.153-1.791,1.791c-0.558-0.638-1.154-1.234-1.791-1.791
				C106.659,69.755,107.255,69.16,107.813,68.522z M107.813,134.147c0.558,0.637,1.153,1.233,1.791,1.791
				c-0.637,0.558-1.233,1.153-1.791,1.791c-0.558-0.638-1.154-1.234-1.791-1.791C106.659,135.38,107.255,134.785,107.813,134.147z
				 M37.5,18.75c0-5.17,4.205-9.375,9.375-9.375H93.75c5.17,0,9.375,4.205,9.375,9.375v37.5c0,5.17-4.205,9.375-9.375,9.375H46.875
				c-5.17,0-9.375-4.205-9.375-9.375V18.75z M37.5,84.375c0-5.17,4.205-9.375,9.375-9.375H93.75c5.17,0,9.375,4.205,9.375,9.375
				v37.5c0,5.17-4.205,9.375-9.375,9.375H46.875c-5.17,0-9.375-4.205-9.375-9.375V84.375z M46.875,140.625H93.75
				c5.17,0,9.375,4.205,9.375,9.375H37.5C37.5,144.831,41.705,140.625,46.875,140.625z M262.5,276.563
				c0,2.583-2.1,4.688-4.687,4.688h-225c-2.587,0-4.688-2.105-4.688-4.688v-65.625H262.5V276.563z M281.251,187.5L281.251,187.5
				c-0.001,7.753-6.31,14.063-14.064,14.063H23.438c-7.753,0-14.063-6.309-14.063-14.063v-14.063
				c0-7.753,6.309-14.063,14.063-14.063h243.75c7.753,0,14.063,6.309,14.063,14.063V187.5z"/>
			<rect x="196.875" y="220.313" width="51.563" height="9.375"/>
			<rect x="178.125" y="220.313" width="9.375" height="9.375"/>
			<rect x="159.375" y="220.313" width="9.375" height="9.375"/>
			<rect x="140.625" y="220.313" width="9.375" height="9.375"/>
			<path d="M60.937,56.251h18.75c7.753,0,14.063-6.309,14.063-14.063v-9.375c0-7.753-6.309-14.063-14.063-14.063h-18.75
				c-7.753,0-14.063,6.309-14.063,14.063v9.375C46.874,49.941,53.183,56.251,60.937,56.251z M56.249,32.813
				c0-2.583,2.1-4.688,4.688-4.688h18.75c2.588,0,4.688,2.105,4.688,4.688v9.375c0,2.583-2.1,4.688-4.688,4.688h-18.75
				c-2.588,0-4.688-2.105-4.688-4.688V32.813z"/>
			<path d="M135.938,56.25h18.75c7.753,0,14.063-6.309,14.063-14.063v-9.375c0-7.753-6.309-14.063-14.063-14.063h-18.75
				c-7.753,0-14.063,6.309-14.063,14.063v9.375C121.875,49.941,128.184,56.25,135.938,56.25z M131.25,32.813
				c0-2.583,2.1-4.688,4.688-4.688h18.75c2.587,0,4.688,2.105,4.688,4.688v9.375c0,2.583-2.1,4.688-4.688,4.688h-18.75
				c-2.587,0-4.688-2.105-4.688-4.688V32.813z"/>
			<path d="M210.938,56.25h18.75c7.753,0,14.063-6.309,14.063-14.063V37.5h-9.375v4.688c0,2.583-2.1,4.688-4.688,4.688h-18.75
				c-2.587,0-4.688-2.105-4.688-4.688v-9.375c0-2.583,2.1-4.688,4.688-4.688h9.375V18.75h-9.375
				c-7.753,0-14.063,6.309-14.063,14.063v9.375C196.875,49.941,203.184,56.25,210.938,56.25z"/>
			<path d="M60.937,121.876h18.75c7.753,0,14.063-6.309,14.063-14.063v-9.375c0-7.753-6.309-14.063-14.063-14.063h-9.375v9.375
				h9.375c2.588,0,4.688,2.105,4.688,4.688v9.375c0,2.583-2.1,4.688-4.688,4.688h-18.75c-2.588,0-4.688-2.105-4.688-4.688v-9.375
				c0-2.583,2.1-4.688,4.688-4.688v-9.375c-7.753,0-14.063,6.309-14.063,14.063v9.375C46.874,115.566,53.183,121.876,60.937,121.876
				z"/>
			<path d="M135.938,121.875h18.75c7.753,0,14.063-6.309,14.063-14.063v-9.375c0-7.753-6.309-14.063-14.063-14.063h-18.75
				c-7.753,0-14.063,6.309-14.063,14.063v9.375C121.875,115.566,128.184,121.875,135.938,121.875z M131.25,98.438
				c0-2.583,2.1-4.688,4.688-4.688h18.75c2.587,0,4.688,2.105,4.688,4.688v9.375c0,2.583-2.1,4.688-4.688,4.688h-18.75
				c-2.587,0-4.688-2.105-4.688-4.688V98.438z"/>
			<path d="M210.938,121.876V112.5c-2.587,0-4.688-2.105-4.688-4.688v-9.375c0-2.583,2.1-4.688,4.688-4.688h18.75
				c2.587,0,4.688,2.105,4.688,4.688v9.375c0,2.583-2.1,4.688-4.688,4.688h-9.375v9.375h9.375c7.753,0,14.063-6.309,14.063-14.063
				v-9.375c0-7.753-6.309-14.063-14.063-14.063h-18.75c-7.753,0-14.063,6.309-14.063,14.063v9.376
				C196.875,115.566,203.184,121.876,210.938,121.876z"/>
		</g>
	</g>
</g>
<g>
</g>
<g>
</g>
<g>
</g>
<g>
</g>
<g>
</g>
<g>
</g>
<g>
</g>
<g>
</g>
<g>
</g>
<g>
</g>
<g>
</g>
<g>
</g>
<g>
</g>
<g>
</g>
<g>
</g>
</svg>
