<?xml version="1.0" encoding="iso-8859-1"?>
<!-- Generator: Adobe Illustrator 19.0.0, SVG Export Plug-In . SVG Version: 6.00 Build 0)  -->
<svg version="1.1" id="Layer_1" xmlns="http://www.w3.org/2000/svg" xmlns:xlink="http://www.w3.org/1999/xlink" x="0px" y="0px"
	 viewBox="0 0 289.252 289.252" style="enable-background:new 0 0 289.252 289.252;" xml:space="preserve">
<g>
	<g>
		<g>
			<path d="M120.503,154.688c0-8.653-2.972-16.603-7.912-22.959l8.395-8.395c6.352,4.945,14.302,7.917,22.955,7.917
				c20.677,0,37.5-16.823,37.5-37.5c0-8.653-2.972-16.603-7.913-22.959l3.708-3.708C183.587,72.028,191.537,75,200.19,75
				c20.677,0,37.5-16.823,37.5-37.5S220.867,0,200.19,0s-37.5,16.823-37.5,37.5c0,8.653,2.972,16.603,7.912,22.959l-3.708,3.708
				c-6.352-4.945-14.302-7.917-22.955-7.917c-20.677,0-37.5,16.823-37.5,37.5c0,8.653,2.972,16.603,7.912,22.959l-8.395,8.395
				c-6.352-4.945-14.302-7.917-22.955-7.917c-20.677,0-37.5,16.823-37.5,37.5c0,8.653,2.972,16.603,7.912,22.959L0.001,231.061
				l6.628,6.628l53.414-53.414c6.356,4.941,14.306,7.913,22.96,7.913C103.68,192.188,120.503,175.365,120.503,154.688z
				 M200.19,9.375c15.511,0,28.125,12.614,28.125,28.125s-12.614,28.125-28.125,28.125c-15.511,0-28.125-12.614-28.125-28.125
				S184.679,9.375,200.19,9.375z M143.94,65.625c15.511,0,28.125,12.614,28.125,28.125s-12.614,28.125-28.125,28.125
				c-15.511,0-28.125-12.614-28.125-28.125S128.429,65.625,143.94,65.625z M54.878,154.688c0-15.511,12.614-28.125,28.125-28.125
				s28.125,12.614,28.125,28.125s-12.614,28.125-28.125,28.125S54.878,170.199,54.878,154.688z"/>
			<path d="M256.44,65.625c-4.786,0-16.003,0-26.752,10.748L126.564,179.498c-5.77,5.756-10.748,10.73-10.748,26.752
				c0,6.553,2.555,13.313,7.073,19.111l-57.263,57.263l6.628,6.628l57.262-57.262c5.794,4.514,12.544,7.073,19.092,7.073
				c0.141,0.014,0.216,0,0.323,0c4.955,0,15.914-0.216,26.442-10.744l103.13-103.13c5.766-5.761,10.748-10.739,10.748-26.752
				C289.253,81.881,273.001,65.625,256.44,65.625z M271.876,118.561l-103.13,103.13c-8.006,8.006-15.755,8.002-20.123,7.997
				c-5.47,0-11.306-2.7-16.017-7.411c-4.716-4.716-7.416-10.556-7.416-16.027c0-12.131,2.841-14.967,8.002-20.119l103.13-103.13
				C244.318,75,252.203,75,256.44,75c11.391,0,23.438,12.047,23.438,23.438C279.878,110.564,277.037,113.405,271.876,118.561z"/>
			<path d="M190.815,154.688v14.063h-14.063c-5.17,0-9.375,4.205-9.375,9.375v14.063h-14.063c-5.17,0-9.375,4.205-9.375,9.375v4.688
				h9.375v-4.688h14.063c5.17,0,9.375-4.205,9.375-9.375v-14.063h14.063c5.17,0,9.375-4.205,9.375-9.375v-14.063h14.063
				c5.17,0,9.375-4.205,9.375-9.375H200.19C195.02,145.313,190.815,149.517,190.815,154.688z"/>
			<path d="M261.128,98.438h-14.062c-5.17,0-9.375,4.205-9.375,9.375v14.063h-14.063c-5.17,0-9.375,4.205-9.375,9.375v9.375h9.375
				v-9.375h14.063c5.17,0,9.375-4.205,9.375-9.375v-14.063h14.062c5.17,0,9.375-4.205,9.375-9.375V93.75h-9.375V98.438z"/>
			<rect x="143.94" y="210.938" width="9.375" height="9.375"/>
			<path d="M83.003,168.75c-7.753,0-14.063-6.309-14.063-14.063h-9.375c0,12.924,10.514,23.438,23.438,23.438V168.75z"/>
			<path d="M200.19,60.938v-9.375c-7.753,0-14.063-6.309-14.063-14.063h-9.375C176.753,50.423,187.267,60.938,200.19,60.938z"/>
		</g>
	</g>
</g>
<g>
</g>
<g>
</g>
<g>
</g>
<g>
</g>
<g>
</g>
<g>
</g>
<g>
</g>
<g>
</g>
<g>
</g>
<g>
</g>
<g>
</g>
<g>
</g>
<g>
</g>
<g>
</g>
<g>
</g>
</svg>
