<?xml version="1.0" encoding="iso-8859-1"?>
<!-- Generator: Adobe Illustrator 19.0.0, SVG Export Plug-In . SVG Version: 6.00 Build 0)  -->
<svg version="1.1" id="Layer_1" xmlns="http://www.w3.org/2000/svg" xmlns:xlink="http://www.w3.org/1999/xlink" x="0px" y="0px"
	 viewBox="0 0 292.406 292.406" style="enable-background:new 0 0 292.406 292.406;" xml:space="preserve">
<g>
	<g>
		<g>
			<path d="M91.481,149.624l45.347,28.341v-30.122c32.231-6.619,61.008-24.356,79.669-49.795
				c18.183,24.975,42.933,38.648,70.331,38.648v-9.375c-18.267,0-28.125-19.322-28.125-37.5c0-18.178,9.858-37.5,28.125-37.5v-9.375
				c-27.398,0-52.148,13.673-70.331,38.644c-17.752-24.197-44.648-41.466-74.981-48.787V1.021l-39.277,28.055
				C60.834,31.058,24.427,51.993,1.641,87.28L0,89.821l1.645,2.541C22.434,124.56,54.563,144.815,91.481,149.624z M258.708,58.194
				c-6.173,8.841-9.38,20.405-9.38,31.627c0,11.222,3.206,22.786,9.38,31.622c-13.95-6.094-26.438-16.814-36.563-31.622
				C232.27,75.013,244.758,64.293,258.708,58.194z M127.453,161.052l-16.575-10.359c5.583-0.089,11.114-0.502,16.575-1.237V161.052z
				 M132.141,19.242v11.662c-4.608-0.783-9.267-1.355-13.978-1.678L132.141,19.242z M108.703,38.258
				c41.428,0,80.273,19.683,102.178,51.562c-21.905,31.88-60.75,51.563-102.178,51.563c-10.509,0-20.691-1.341-30.422-3.867
				c8.902-8.859,21.047-25.073,21.047-47.695c0-9.862-0.619-20.334-5.119-30.089l-8.513,3.928
				c3.534,7.659,4.256,15.998,4.256,26.161c0,22.542-14.728,38.133-22.031,44.48c-22.744-8.245-42.417-23.461-56.719-44.48
				C33.53,57.008,68.892,38.258,108.703,38.258z"/>
			<path d="M57.141,94.508c7.753,0,14.063-6.309,14.063-14.063c0-7.754-6.309-14.063-14.063-14.063
				c-7.754,0-14.063,6.309-14.063,14.063C43.078,88.199,49.387,94.508,57.141,94.508z M57.141,75.758
				c2.583,0,4.688,2.105,4.688,4.688s-2.105,4.688-4.688,4.688s-4.688-2.105-4.688-4.688S54.558,75.758,57.141,75.758z"/>
			<rect x="120.42" y="50.217" transform="matrix(0.7071 0.7071 -0.7071 0.7071 88.5576 -66.9613)" width="9.375" height="46.401"/>
			<rect x="97.054" y="89.82" transform="matrix(-0.7071 0.7071 -0.7071 -0.7071 300.4094 64.5808)" width="79.55" height="9.375"/>
			
				<rect x="132.778" y="96.853" transform="matrix(-0.7071 0.7071 -0.7071 -0.7071 349.39 58.3584)" width="59.661" height="9.375"/>
			<path d="M290.766,218.53c-23.723-36.731-63.197-43.58-100.069-44.269l-14.541-18.178c-2.709-3.384-6.745-5.325-11.081-5.325
				c-7.823,0-14.184,6.361-14.184,14.184v10.978c-28.064,3.314-56.316,12.656-75.009,37.144
				c-16.158-20.456-39.15-24.806-70.303-24.806v9.375c17.883,0,23.438,17.18,23.438,23.438s-5.555,23.438-23.438,23.438v9.375
				c31.153,0,54.145-4.35,70.303-24.806c19.734,25.852,50.128,34.823,79.697,37.65v10.022c0,8.072,6.563,14.634,14.634,14.634
				c3.905,0,7.58-1.519,10.345-4.284l19.556-19.556c34.031-1.739,68.939-10.308,90.656-43.927l1.636-2.545L290.766,218.53z
				 M29.466,243.233c6.155-7.022,8.925-16.022,8.925-22.163s-2.77-15.141-8.925-22.163c17.606,2.316,30.816,8.306,40.753,22.163
				C60.281,234.927,47.077,240.918,29.466,243.233z M160.266,164.943c0-2.653,2.156-4.809,4.809-4.809
				c1.467,0,2.836,0.656,3.755,1.805l9.844,12.305c-6,0.075-12.164,0.291-18.408,0.759V164.943z M173.93,280.466
				c-0.98,0.98-2.334,1.542-3.717,1.542c-2.902,0-5.259-2.358-5.259-5.259v-9.319c6.384,0.366,12.684,0.516,18.75,0.516
				c0.919,0,1.852-0.019,2.775-0.028L173.93,280.466z M231.052,253.902c-2.325-0.366-28.598-5.072-28.598-32.831
				c0-9.272,3.83-17.034,7.43-19.636l-5.489-7.598c-6.769,4.884-11.316,15.83-11.316,27.234c0,18.478,9.67,29.709,19.997,35.934
				c-8.887,1.036-18.605,1.566-29.372,1.566c-52.275,0-83.972-11.592-102.159-37.5c18.187-25.908,49.889-37.5,102.159-37.5
				c50.503,0,79.05,10.908,97.486,37.5C269.527,237.894,253.8,248.422,231.052,253.902z"/>
			<path d="M235.266,197.633c-7.753,0-14.063,6.309-14.063,14.063c0,7.753,6.309,14.063,14.063,14.063
				c7.754,0,14.063-6.309,14.063-14.063C249.328,203.943,243.019,197.633,235.266,197.633z M235.266,216.383
				c-2.583,0-4.688-2.105-4.688-4.688s2.105-4.688,4.688-4.688s4.688,2.105,4.688,4.688S237.848,216.383,235.266,216.383z"/>
			<rect x="174.328" y="216.383" width="9.375" height="9.375"/>
			<rect x="155.578" y="216.383" width="9.375" height="9.375"/>
			<rect x="136.828" y="216.383" width="9.375" height="9.375"/>
			<rect x="118.078" y="216.383" width="9.375" height="9.375"/>
			<rect x="99.328" y="216.383" width="9.375" height="9.375"/>
			<rect x="183.703" y="197.633" width="9.375" height="9.375"/>
			<rect x="164.953" y="197.633" width="9.375" height="9.375"/>
			<rect x="146.203" y="197.633" width="9.375" height="9.375"/>
			<rect x="127.453" y="197.633" width="9.375" height="9.375"/>
			<rect x="108.703" y="197.633" width="9.375" height="9.375"/>
			<rect x="183.703" y="235.133" width="9.375" height="9.375"/>
			<rect x="164.953" y="235.133" width="9.375" height="9.375"/>
			<rect x="146.203" y="235.133" width="9.375" height="9.375"/>
			<rect x="127.453" y="235.133" width="9.375" height="9.375"/>
			<rect x="108.703" y="235.133" width="9.375" height="9.375"/>
		</g>
	</g>
</g>
<g>
</g>
<g>
</g>
<g>
</g>
<g>
</g>
<g>
</g>
<g>
</g>
<g>
</g>
<g>
</g>
<g>
</g>
<g>
</g>
<g>
</g>
<g>
</g>
<g>
</g>
<g>
</g>
<g>
</g>
</svg>
