<?xml version="1.0" encoding="iso-8859-1"?>
<!-- Generator: Adobe Illustrator 19.0.0, SVG Export Plug-In . SVG Version: 6.00 Build 0)  -->
<svg version="1.1" id="Layer_1" xmlns="http://www.w3.org/2000/svg" xmlns:xlink="http://www.w3.org/1999/xlink" x="0px" y="0px"
	 viewBox="0 0 290.625 290.625" style="enable-background:new 0 0 290.625 290.625;" xml:space="preserve">
<g>
	<g>
		<g>
			<path d="M145.303,206.25c-15.544,0-28.191,12.614-28.191,28.125s12.614,28.125,28.125,28.125s28.125-12.614,28.125-28.125
				S160.777,206.25,145.303,206.25z M145.238,253.125c-10.163,0-18.75-8.588-18.75-18.75s8.616-18.75,18.816-18.75
				c10.13,0,18.689,8.588,18.689,18.75S155.4,253.125,145.238,253.125z"/>
			<path d="M262.5,23.438c0-8.344-2.897-13.055-8.466-13.969L230.452,4.8c-3.009-0.487-6.295,0.609-9.258,3.122
				c-3.342,2.831-5.395,6.689-5.559,10.397l-7.598,41.756l-1.514-0.38l4.35-26.109l0.066-0.773c0-10.57-4.547-13.481-8.541-13.997
				l-18.445-4.612l-1.139-0.141c-7.209,0-13.467,7.327-14.034,13.547l-0.028,0.267V14.063C168.75,7.622,161.128,0,154.688,0h-18.75
				c-6.441,0-14.063,7.622-14.063,14.063v13.823l-0.019-0.188c-0.577-6.309-6.834-13.636-14.044-13.636l-19.584,4.753
				c-3.994,0.516-8.541,3.427-8.541,13.997l4.42,26.892l-1.519,0.375l-7.603-41.766c-0.164-3.708-2.217-7.561-5.559-10.397
				c-2.958-2.512-6.248-3.633-9.403-3.094L36.736,9.441c-5.714,0.942-8.611,5.653-8.611,13.997l14.044,84.652
				c-5.611,4.327-9.356,11.025-9.356,18.473l28.13,141.112c0.272,12.497,10.894,22.95,23.433,22.95H206.25
				c12.539,0,23.161-10.453,23.433-22.95l28.036-140.194l0.094-0.919c0-7.448-3.745-14.147-9.356-18.473l13.978-83.883L262.5,23.438
				z M206.358,69.315l-0.028,0.164l2.507,0.454l1.27,0.319c0.478,0.68,1.008,2.597,0.867,4.172l-9.375,75l0.244,0.028
				c-7.106,9.623-16.575,17.367-27.581,22.369L187.43,66.469c0.633-0.455,2.405-0.98,4.022-0.881L206.358,69.315z M168.751,112.749
				l9.355-84.197c0.164-1.767,2.527-4.688,4.327-5.072l18.398,4.43c0.033,0.038,0.689,0.891,0.731,4.528L197.4,57.413l-4.073-1.017
				l-0.717-0.122c-5.611-0.483-13.819,1.927-14.447,8.775l-9.412,75.286V112.749z M131.25,14.091
				c0.136-1.453,3.262-4.585,4.688-4.716h18.722c1.453,0.131,4.584,3.263,4.716,4.688V176.71c-4.547,0.923-9.248,1.416-14.063,1.416
				s-9.516-0.492-14.063-1.42V14.091z M89.551,28.102l18.656-4.617c1.8,0.398,4.148,3.309,4.322,5.161l9.347,84.103v27.595
				l-9.394-75.15c-0.638-6.998-8.864-9.408-14.461-8.925L93.24,57.45l-4.177-25.012C89.1,29.265,89.597,28.219,89.551,28.102z
				 M80.517,70.246l1.27-0.319l2.512-0.455l-0.028-0.164l14.902-3.725c1.58-0.084,3.38,0.431,4.017,0.881l13.167,105.323
				c-10.964-5.002-20.395-12.741-27.473-22.35l0.141-0.019l-9.361-74.845C79.509,72.857,80.039,70.926,80.517,70.246z M37.5,23.063
				c0.047-3.619,0.731-4.383,0.909-4.406l23.161-4.598c1.275,0.089,4.055,2.827,4.055,4.739l8.123,45.009
				c-2.752,3.052-3.755,7.927-3.403,11.775l3.445,27.544H56.25c-1.819,0-3.577,0.272-5.292,0.689L37.5,23.063z M220.406,266.269
				l-0.094,0.919c0,7.491-6.572,14.063-14.063,14.063H84.375c-7.491,0-14.063-6.572-14.063-14.063l-28.12-141.056
				c0.248-7.308,6.713-13.631,14.058-13.631h9.647c2.433,41.766,37.125,75,79.416,75c42.366,0,77.114-33.234,79.552-75h9.511
				c7.345,0,13.809,6.323,14.058,13.631L220.406,266.269z M239.667,103.814c-1.716-0.417-3.473-0.689-5.292-0.689H216.83
				l3.459-27.698c0.342-3.741-0.661-8.573-3.408-11.616l8.039-44.18l0.08-0.834c0-1.913,2.78-4.65,3.778-4.781l23.592,4.631
				c0.028,0.033,0.708,0.797,0.755,4.416L239.667,103.814z"/>
			
				<rect x="48.867" y="227.342" transform="matrix(-0.1521 -0.9884 0.9884 -0.1521 -137.5128 346.0894)" width="61.659" height="9.375"/>
			<rect x="135.938" y="98.438" width="9.375" height="51.563"/>
			<rect x="135.938" y="159.375" width="9.375" height="9.375"/>
		</g>
	</g>
</g>
<g>
</g>
<g>
</g>
<g>
</g>
<g>
</g>
<g>
</g>
<g>
</g>
<g>
</g>
<g>
</g>
<g>
</g>
<g>
</g>
<g>
</g>
<g>
</g>
<g>
</g>
<g>
</g>
<g>
</g>
</svg>
