<?xml version="1.0" encoding="iso-8859-1"?>
<!-- Generator: Adobe Illustrator 19.0.0, SVG Export Plug-In . SVG Version: 6.00 Build 0)  -->
<svg version="1.1" id="Layer_1" xmlns="http://www.w3.org/2000/svg" xmlns:xlink="http://www.w3.org/1999/xlink" x="0px" y="0px"
	 viewBox="0 0 290.626 290.626" style="enable-background:new 0 0 290.626 290.626;" xml:space="preserve">
<g>
	<g>
		<g>
			<path d="M239.063,75c0-9.698-4.542-16.612-12.469-18.961l-2.667,8.986c3.82,1.134,5.761,4.491,5.761,9.975
				c0,14.091,0,30.066,15.436,45.502l6.628-6.628C239.063,101.184,239.063,88.467,239.063,75z"/>
			<path d="M260.823,122.967l-6.019,7.186c6.9,5.78,7.88,13.022,7.481,18.08c-0.778,9.947-7.462,20.583-16.261,25.875l4.828,8.034
				c11.414-6.858,19.767-20.194,20.78-33.173C272.434,138.712,268.594,129.478,260.823,122.967z"/>
			<path d="M28.219,150.047c0.056-5.705,1.008-13.153,7.936-20.198l-6.684-6.572c-9.38,9.539-10.556,19.795-10.627,26.677
				c-0.113,11.386,8.241,22.177,16.055,27.384l5.198-7.8C34.284,165.661,28.144,157.514,28.219,150.047z"/>
			<path d="M54.854,61.669c-4.228,5.161-5.302,13.106-3.202,23.63l9.192-1.842c-1.463-7.298-1.05-12.886,1.163-15.722
				c1.542-1.978,3.637-2.109,3.727-2.109l-0.108-9.375C64.979,56.25,59.175,56.4,54.854,61.669z"/>
			<path d="M216.117,227.095c2.203,4.406-0.703,6.778-2.634,7.795l2.142,4.172l2.095,4.195c5.456-2.728,11.761-10.397,6.783-20.353
				L216.117,227.095z"/>
			<path d="M145.313,98.438c-36.188,0-65.625,29.438-65.625,65.625s29.438,65.625,65.625,65.625
				c36.187,0,65.625-29.438,65.625-65.625S181.5,98.438,145.313,98.438z M145.313,220.313c-31.017,0-56.25-25.233-56.25-56.25
				c0-31.017,25.233-56.25,56.25-56.25c31.017,0,56.25,25.233,56.25,56.25C201.563,195.08,176.331,220.313,145.313,220.313z"/>
			<path d="M117.188,164.063h-9.375c0,20.677,16.823,37.5,37.5,37.5v-9.375C129.802,192.188,117.188,179.573,117.188,164.063z"/>
			<path d="M270.531,104.527c-10.575-10.758-12.717-16.514-12.717-34.214c0-19.322-15.422-32.813-37.5-32.813
				c-18.056,0-32.555-7.242-43.106-21.534C168.834,4.627,159.591,0,145.313,0c-14.283,0-23.522,4.627-31.898,15.966
				C102.872,30.258,88.37,37.5,70.313,37.5c-22.078,0-37.5,13.491-37.5,32.813c0,17.7-2.142,23.456-12.717,34.214
				C6.948,117.891,0,133.617,0,150c0,18.75,9.066,35.114,25.523,46.088c13.181,8.789,21.352,17.475,21.352,33.6
				c0,19.012,15.769,32.813,37.5,32.813c17.723,0,29.93,5.353,38.419,16.847c5.292,7.167,13.5,11.278,22.519,11.278
				c9.019,0,17.227-4.111,22.523-11.278c8.48-11.494,20.686-16.847,38.414-16.847c21.731,0,37.5-13.8,37.5-32.813
				c0-16.125,8.17-24.811,21.352-33.6c16.458-10.973,25.523-27.338,25.523-46.088C290.625,133.617,283.679,117.891,270.531,104.527z
				 M259.898,188.287c-13.256,8.836-25.523,19.969-25.523,41.4c0,13.8-11.564,23.438-28.125,23.438
				c-20.667,0-35.7,6.755-45.956,20.653c-3.511,4.748-8.967,7.472-14.981,7.472c-6.009,0-11.47-2.723-14.977-7.472
				c-10.261-13.898-25.294-20.653-45.961-20.653c-16.561,0-28.125-9.637-28.125-23.438c0-21.431-12.267-32.564-25.523-41.4
				C16.959,179.109,9.375,165.511,9.375,150c0-14.067,5.855-27.159,17.405-38.902c12.239-12.445,15.408-20.831,15.408-40.786
				c0-16.191,14.128-23.438,28.125-23.438c20.897,0,38.409-8.766,50.644-25.341c5.691-7.702,11.498-12.159,24.356-12.159
				c12.858,0,18.666,4.458,24.352,12.159c12.239,16.575,29.752,25.341,50.648,25.341c13.997,0,28.125,7.247,28.125,23.438
				c0,19.955,3.169,28.341,15.408,40.786c11.55,11.742,17.405,24.834,17.405,38.902C281.25,165.511,273.667,179.109,259.898,188.287
				z"/>
		</g>
	</g>
</g>
<g>
</g>
<g>
</g>
<g>
</g>
<g>
</g>
<g>
</g>
<g>
</g>
<g>
</g>
<g>
</g>
<g>
</g>
<g>
</g>
<g>
</g>
<g>
</g>
<g>
</g>
<g>
</g>
<g>
</g>
</svg>
