<?xml version="1.0" encoding="iso-8859-1"?>
<!-- Generator: Adobe Illustrator 19.0.0, SVG Export Plug-In . SVG Version: 6.00 Build 0)  -->
<svg version="1.1" id="Layer_1" xmlns="http://www.w3.org/2000/svg" xmlns:xlink="http://www.w3.org/1999/xlink" x="0px" y="0px"
	 viewBox="0 0 290.626 290.626" style="enable-background:new 0 0 290.626 290.626;" xml:space="preserve">
<g>
	<g>
		<g>
			<path d="M206.25,0.001c-24.103,0-46.927,10.252-62.944,28.191L81.169,90.545c-7.495,6.403-13.922,14.161-18.895,23.053
				c-11.109,5.934-20.255,14.714-27.787,24.764C13.622,153.736,0,178.402,0,206.251c0,46.523,37.852,84.375,84.375,84.375
				c27.844,0,52.509-13.617,67.889-34.481c10.05-7.538,18.83-16.683,24.764-27.792c8.897-4.969,16.65-11.395,23.053-18.891
				l23.541-23.325c0.694-0.694,1.397-1.355,2.067-2.067l21.277-21.277c0.694-0.694,1.397-1.355,2.067-2.067l8.78-8.784l7.997-7.805
				c16.003-15.947,24.816-37.172,24.816-59.761C290.625,37.853,252.773,0.001,206.25,0.001z M84.375,281.251
				c-41.353,0-75-33.647-75-75c0-41.353,33.647-75,75-75s75,33.647,75,75C159.375,247.603,125.728,281.251,84.375,281.251z
				 M165.417,229.496c2.128-7.392,3.333-15.173,3.333-23.245c0-46.523-37.852-84.375-84.375-84.375
				c-8.067,0-15.853,1.205-23.245,3.333c12.558-8.03,27.427-12.708,41.995-12.708c41.353,0,75,33.647,75,75
				C178.125,202.069,173.447,216.939,165.417,229.496z M183.647,212.551c2.508-8.114,3.853-16.57,3.853-25.05
				c0-46.523-37.852-84.375-84.375-84.375c-8.48,0-16.941,1.345-25.055,3.853c14.095-17.105,35.18-27.291,57.867-27.291
				c41.353,0,75,33.647,75,75C210.938,177.376,200.752,198.46,183.647,212.551z M252.009,48.53l-7.139,6.07
				c11.368,13.378,17.63,30.609,17.63,48.525c0,17.93-6.281,34.861-17.742,48.38c2.475-8.006,3.778-16.42,3.778-25.041
				c0-10.72-1.711-20.705-5.081-29.681l-8.775,3.3c2.972,7.912,4.481,16.791,4.481,26.377c0,19.116-7.167,37.078-20.123,50.995
				l-2.691,2.691c2.564-8.109,3.966-16.669,3.966-25.458c0-46.523-37.852-84.375-84.375-84.375c-8.789,0-17.348,1.402-25.462,3.966
				l36.777-36.779l1.814-1.655c14.292-16.819,35.133-26.47,57.183-26.47c41.353,0,75,33.647,75,75
				c0,14.953-4.411,29.194-12.502,41.363c2.016-7.28,3.127-14.855,3.127-22.613C271.875,82.993,264.82,63.6,252.009,48.53z"/>
			<path d="M84.375,182.814c-12.923,0-23.438,10.514-23.438,23.438s10.514,23.438,23.438,23.438s23.438-10.514,23.438-23.438
				S97.298,182.814,84.375,182.814z M84.375,220.314c-7.753,0-14.063-6.309-14.063-14.063c0-7.754,6.309-14.063,14.063-14.063
				s14.063,6.309,14.063,14.063C98.438,214.004,92.128,220.314,84.375,220.314z"/>
			<path d="M187.5,28.126c17.906,0,35.142,6.263,48.53,17.634l6.07-7.144c-15.08-12.811-34.472-19.866-54.6-19.866V28.126z"/>
			<path d="M164.063,42.09v9.375c23.438,0,43.017,9.68,57.305,26.564l7.134-6.056C212.428,52.983,187.5,42.09,164.063,42.09z"/>
		</g>
	</g>
</g>
<g>
</g>
<g>
</g>
<g>
</g>
<g>
</g>
<g>
</g>
<g>
</g>
<g>
</g>
<g>
</g>
<g>
</g>
<g>
</g>
<g>
</g>
<g>
</g>
<g>
</g>
<g>
</g>
<g>
</g>
</svg>
