<?xml version="1.0" encoding="iso-8859-1"?>
<!-- Generator: Adobe Illustrator 19.0.0, SVG Export Plug-In . SVG Version: 6.00 Build 0)  -->
<svg version="1.1" id="Layer_1" xmlns="http://www.w3.org/2000/svg" xmlns:xlink="http://www.w3.org/1999/xlink" x="0px" y="0px"
	 viewBox="0 0 290.627 290.627" style="enable-background:new 0 0 290.627 290.627;" xml:space="preserve">
<g>
	<g>
		<g>
			<path d="M271.876,178.148v-0.023c-0.042,0-0.075,0.014-0.117,0.014s-0.08-0.014-0.122-0.014h-0.398
				c11.545-6.398,19.388-18.703,19.388-32.813c0-11.648-5.339-22.073-13.702-28.955c7.888-2.277,13.7-9.402,13.7-17.919
				c0-4.908-1.964-9.347-5.1-12.694c3.089-2.578,5.1-6.413,5.1-10.744c0-41.353-33.647-75-75-75H75C33.647,0,0,33.647,0,75
				c0,4.331,2.011,8.166,5.1,10.744C1.964,89.091,0,93.53,0,98.438c0,8.517,5.813,15.642,13.702,17.92
				C5.339,123.24,0,133.664,0,145.313c0,14.109,7.842,26.414,19.388,32.813H18.99c-0.042,0-0.08,0.014-0.122,0.014
				s-0.075-0.014-0.117-0.014v0.023C8.391,178.28,0,186.615,0,196.875c0,4.908,1.964,9.347,5.1,12.694
				c-3.089,2.578-5.1,6.412-5.1,10.744c0,38.77,31.542,70.313,70.313,70.313h150c38.77,0,70.313-31.542,70.313-70.313
				c0-4.331-2.011-8.166-5.1-10.744c3.136-3.347,5.1-7.786,5.1-12.694C290.626,186.615,282.235,178.28,271.876,178.148z M75,9.375
				h140.625c36.188,0,65.625,29.438,65.625,65.625c0,2.588-2.1,4.688-4.688,4.688h-4.927H18.989h-4.927
				c-2.588,0-4.688-2.1-4.688-4.688C9.375,38.813,38.813,9.375,75,9.375z M9.375,98.438c0-5.17,4.313-9.375,9.614-9.375h252.647
				c5.302,0,9.614,4.205,9.614,9.375s-4.312,9.375-9.614,9.375H18.989C13.687,107.813,9.375,103.608,9.375,98.438z M187.88,117.188
				l-79.163,27.534l-34.415-27.534H187.88z M9.375,145.313c0-15.511,12.614-28.125,28.125-28.125h21.787l47.616,38.091
				l109.509-38.091h36.713c15.511,0.001,28.125,12.615,28.125,28.126s-12.614,28.125-28.125,28.125h-0.862
				c-1.941-5.442-7.097-9.375-13.2-9.375c-7.753,0-14.063,6.309-14.063,14.063c0,2.587-2.1,4.688-4.688,4.688
				s-4.688-2.1-4.688-4.688c0-7.753-6.309-14.063-14.063-14.063c-7.754,0-14.063,6.309-14.063,14.063c0,2.587-2.1,4.688-4.688,4.688
				s-4.688-2.1-4.688-4.688c0-7.753-6.309-14.063-14.063-14.063c-7.754,0-14.059,6.309-14.059,14.062c0,2.587-2.1,4.688-4.688,4.688
				s-4.688-2.1-4.688-4.688c0-7.753-6.309-14.063-14.063-14.063c-7.754,0-14.063,6.309-14.063,14.063c0,2.587-2.1,4.688-4.688,4.688
				s-4.688-2.1-4.688-4.688c0-7.753-6.309-14.063-14.063-14.063c-7.754,0-14.059,6.31-14.059,14.063c0,2.587-2.1,4.688-4.688,4.688
				s-4.688-2.1-4.688-4.688c0-7.753-6.309-14.063-14.063-14.063c-6.103,0-11.259,3.933-13.2,9.375H37.5
				C21.989,173.438,9.375,160.823,9.375,145.313z M18.844,187.514c1.148,0.038,2.747,0.848,4.444,1.725
				c2.555,1.313,5.737,2.948,9.525,2.948c7.753,0,14.063-6.309,14.063-14.063c0-2.587,2.1-4.688,4.688-4.688
				c2.588,0,4.688,2.1,4.688,4.688c0,7.753,6.309,14.063,14.063,14.063s14.063-6.309,14.063-14.063c0-2.587,2.1-4.688,4.688-4.688
				c2.588,0,4.688,2.1,4.688,4.688c0,7.753,6.309,14.063,14.063,14.063s14.063-6.309,14.063-14.063c0-2.587,2.1-4.688,4.688-4.688
				c2.587,0,4.688,2.1,4.688,4.688c0,7.753,6.309,14.063,14.063,14.063c7.754,0,14.063-6.309,14.063-14.063
				c0-2.587,2.1-4.688,4.688-4.688c2.588,0,4.688,2.1,4.688,4.688c0,7.753,6.309,14.063,14.063,14.063
				c7.754,0,14.063-6.309,14.063-14.063c0-2.587,2.1-4.688,4.688-4.688c2.588,0,4.688,2.1,4.688,4.688
				c0,7.753,6.309,14.063,14.063,14.063c7.754,0,14.063-6.309,14.063-14.063c0-2.587,2.1-4.688,4.688-4.688
				c2.588,0,4.688,2.1,4.688,4.688c0,7.753,6.309,14.063,14.063,14.063c3.788,0,6.97-1.636,9.525-2.948
				c1.697-0.877,3.295-1.688,4.444-1.725c5.219,0.08,9.456,4.242,9.456,9.361c0,5.17-4.313,9.375-9.614,9.375H18.989
				c-5.302,0-9.614-4.205-9.614-9.375C9.375,191.756,13.613,187.594,18.844,187.514z M220.313,281.25h-150
				c-33.6,0-60.938-27.338-60.938-60.938c0-2.587,2.1-4.688,4.688-4.688h4.927h252.647h4.927c2.587,0,4.688,2.1,4.688,4.688
				C281.25,253.912,253.912,281.25,220.313,281.25z"/>
			<rect x="89.063" y="18.75" width="9.375" height="9.375"/>
			<rect x="107.813" y="28.125" width="9.375" height="9.375"/>
			<rect x="154.688" y="18.75" width="9.375" height="9.375"/>
			<rect x="182.813" y="18.75" width="9.375" height="9.375"/>
			<rect x="225" y="28.125" width="9.375" height="9.375"/>
			<rect x="56.25" y="32.813" width="9.375" height="9.375"/>
			<rect x="173.438" y="37.5" width="9.375" height="9.375"/>
			<rect x="159.375" y="262.5" width="60.938" height="9.375"/>
			<rect x="229.688" y="262.5" width="9.375" height="9.375"/>
		</g>
	</g>
</g>
<g>
</g>
<g>
</g>
<g>
</g>
<g>
</g>
<g>
</g>
<g>
</g>
<g>
</g>
<g>
</g>
<g>
</g>
<g>
</g>
<g>
</g>
<g>
</g>
<g>
</g>
<g>
</g>
<g>
</g>
</svg>
