<?xml version="1.0" encoding="iso-8859-1"?>
<!-- Generator: Adobe Illustrator 19.0.0, SVG Export Plug-In . SVG Version: 6.00 Build 0)  -->
<svg version="1.1" id="Layer_1" xmlns="http://www.w3.org/2000/svg" xmlns:xlink="http://www.w3.org/1999/xlink" x="0px" y="0px"
	 viewBox="0 0 290.627 290.627" style="enable-background:new 0 0 290.627 290.627;" xml:space="preserve">
<g>
	<g>
		<g>
			<path d="M284.809,62.58l-0.245-0.269c-2.33-2.33-4.762-3.9-7.242-4.88l2.555-2.555c7.134-7.13,10.748-14.555,10.748-22.064
				C290.625,15.028,275.597,0,257.813,0c-7.509,0-14.934,3.614-22.064,10.748l-2.545,2.545c-1.012-2.508-2.658-4.992-5.152-7.481
				C221.789,0.45,213.516,0,206.25,0c-0.005,0,0,0-0.005,0c-34.86,0-79.701,26.41-129.66,76.369
				c-9.15,9.15-17.428,18.056-24.914,26.756h-0.108c0,0.019,0,0.089,0,0.117C17.077,143.325,0.132,178.758,0,210.914
				c-0.028,6.834,1.927,12.6,5.817,17.133l0.248,0.267c2.33,2.325,4.748,3.909,7.219,4.898l-2.536,2.536
				C3.614,242.878,0,250.303,0,257.813c0,17.784,15.028,32.813,32.813,32.813c7.509,0,14.934-3.614,22.064-10.748l2.545-2.545
				c1.013,2.508,2.658,4.997,5.152,7.481c6.258,5.362,14.536,5.813,21.802,5.813h0.005c44.217,0,95.03-41.531,129.867-76.369
				c51.234-51.234,76.219-95.245,76.378-134.545C290.655,72.879,288.699,67.113,284.809,62.58z M12.821,221.813
				c-2.339-2.794-3.464-6.347-3.445-10.856c0.117-28.256,14.63-59.686,44.044-95.363c2.283,8.709,7.378,20.241,18.764,28.777
				l5.625-7.5c-12.623-9.469-15.797-23.958-16.598-30.431c6.694-7.627,13.978-15.427,21.998-23.447
				C93.236,72.966,103,63.985,112.497,55.951v0.3c0.122,0,12.211,0.094,20.123,8.002l6.628-6.628
				c-5.372-5.377-11.981-8.058-17.292-9.403c32.269-25.505,60.952-38.845,84.291-38.845h0.005c7.13,0,12.244,0.595,15.431,3.314
				c2.203,2.203,3.319,4.242,3.319,6.061c0,1.819-1.116,3.858-3.314,6.061L24.811,221.686
				C20.447,226.036,17.171,226.083,12.821,221.813z M62.311,259.186l-14.062,14.063c-5.311,5.311-10.505,8.002-15.436,8.002
				c-12.487,0-23.437-10.95-23.437-23.438c0-4.931,2.691-10.125,8.002-15.436l14.063-14.063L228.314,31.439l14.063-14.063
				c5.311-5.311,10.505-8.002,15.436-8.002c12.487,0,23.438,10.95,23.438,23.437c0,4.931-2.691,10.125-8.002,15.436L259.186,62.31
				L62.311,259.186z M207.624,207.624c-10.5,10.5-22.472,21.633-35.227,31.973l-0.098-0.394c-0.164,0.042-16.369,3.853-33.047-12.83
				l-6.628,6.628c10.242,10.242,20.555,14.105,28.397,15.389c-25.064,18.6-52.2,32.859-76.645,32.855
				c-7.134,0-12.248-0.595-15.436-3.309c-2.198-2.203-3.314-4.242-3.314-6.061c0-1.819,1.116-3.863,3.319-6.061L265.819,68.939
				c2.194-2.198,4.233-3.314,6.056-3.314c1.786,0,3.783,1.073,5.93,3.183c2.339,2.798,3.464,6.352,3.445,10.861
				C281.1,116.377,257.016,158.227,207.624,207.624z"/>
			<polygon points="103.125,187.5 79.688,187.5 79.688,210.938 56.25,210.938 56.25,234.375 32.813,234.375 32.813,262.5 
				42.188,262.5 42.188,243.75 65.625,243.75 65.625,220.313 89.063,220.313 89.063,196.875 112.5,196.875 112.5,173.438 
				131.25,173.438 131.25,164.063 103.125,164.063 			"/>
			<polygon points="196.875,93.75 173.438,93.75 173.438,117.188 150,117.188 150,140.625 126.563,140.625 126.563,154.688 
				135.938,154.688 135.938,150 159.375,150 159.375,126.563 182.813,126.563 182.813,103.125 206.25,103.125 206.25,79.688 
				215.625,79.688 215.625,70.313 196.875,70.313 			"/>
			<polygon points="243.75,46.875 220.313,46.875 220.313,75 229.688,75 229.688,56.25 253.125,56.25 253.125,28.125 243.75,28.125 
							"/>
			
				<rect x="138.685" y="65.626" transform="matrix(0.7071 0.7071 -0.7071 0.7071 92.2802 -82.1579)" width="13.256" height="9.375"/>
			<rect x="79.69" y="87.948" transform="matrix(0.7071 0.7071 -0.7071 0.7071 91.0039 -32.2055)" width="9.375" height="11.601"/>
			
				<rect x="103.126" y="68.372" transform="matrix(0.7071 0.7071 -0.7071 0.7071 84.6111 -54.2687)" width="9.375" height="13.256"/>
			<rect x="37.503" y="144.198" transform="matrix(0.7071 0.7071 -0.7071 0.7071 118.422 14.1004)" width="9.375" height="11.601"/>
			
				<rect x="145.315" y="31.698" transform="matrix(0.7071 0.7071 -0.7071 0.7071 70.4504 -95.0846)" width="9.375" height="11.601"/>
			
				<rect x="178.126" y="213.685" transform="matrix(-0.7071 -0.7071 0.7071 -0.7071 156.2983 505.3654)" width="9.375" height="13.256"/>
			
				<rect x="206.251" y="180.872" transform="matrix(-0.7071 -0.7071 0.7071 -0.7071 227.5124 469.2383)" width="9.375" height="13.256"/>
			
				<rect x="234.376" y="143.372" transform="matrix(-0.7071 -0.7071 0.7071 -0.7071 302.039 425.1102)" width="9.375" height="13.256"/>
		</g>
	</g>
</g>
<g>
</g>
<g>
</g>
<g>
</g>
<g>
</g>
<g>
</g>
<g>
</g>
<g>
</g>
<g>
</g>
<g>
</g>
<g>
</g>
<g>
</g>
<g>
</g>
<g>
</g>
<g>
</g>
<g>
</g>
</svg>
