<?xml version="1.0" encoding="iso-8859-1"?>
<!-- Generator: Adobe Illustrator 19.0.0, SVG Export Plug-In . SVG Version: 6.00 Build 0)  -->
<svg version="1.1" id="Layer_1" xmlns="http://www.w3.org/2000/svg" xmlns:xlink="http://www.w3.org/1999/xlink" x="0px" y="0px"
	 viewBox="0 0 290.639 290.639" style="enable-background:new 0 0 290.639 290.639;" xml:space="preserve">
<g>
	<g>
		<g>
			
				<rect x="78.193" y="107.814" transform="matrix(0.707 -0.7072 0.7072 0.707 -41.1152 125.7615)" width="106.053" height="9.375"/>
			
				<rect x="159.339" y="140.3" transform="matrix(-0.7071 -0.7071 0.7071 -0.7071 157.3668 412.0684)" width="9.375" height="66.284"/>
			<path d="M270.45,29.505l-9.375-9.375c-5.883-5.883-14.077-10.833-25.045-15.117c-8.503-3.319-16.964-5.006-25.134-5.006
				c-0.005,0-0.005,0-0.009,0c-20.503,0-36.445,6.398-50.175,20.123L57.609,123.255c-14.002,14.006-19.978,38.194,0,58.191
				l10.744,10.748L6.061,254.505C1.87,258.695,0.005,263.111,0,268.83c0,6.244,2.152,11.831,6.056,15.741
				c6.061,6.061,12.338,6.061,17.377,6.061c4.397,0,8.663-2.039,12.684-6.061l62.297-62.311l15.431,15.436
				c6.089,6.094,13.748,9.9,21.572,10.725c0.98,0.098,2.034,0.164,3.15,0.164c6.623,0,15.408-2.194,24.098-10.889l90.427-90.431
				v26.18c0,10.341,8.414,18.75,18.75,18.75s18.75-8.409,18.75-18.75v-92.35c0-0.468,0.047-0.914,0.047-1.382
				C290.705,60.424,283.533,42.593,270.45,29.505z M29.489,277.942c-2.198,2.198-4.233,3.314-6.056,3.314
				c-4.313,0-7.43,0-10.744-3.314c-2.105-2.105-3.314-5.428-3.314-9.108c0-3.202,0.9-5.283,3.314-7.702l62.292-62.311l16.805,16.809
				L29.489,277.942z M281.217,79.693v1.378c0,16.781-6.192,30.98-17.386,42.183l6.638,6.628c4.28-4.284,6.061-8.977,10.748-13.978
				v57.54c0,5.17-4.205,9.375-9.375,9.375c-5.17,0-9.375-4.205-9.375-9.375v-75c0-10.341-8.423-18.75-18.759-18.75
				s-18.75,8.409-18.75,18.75c0,7.753-6.305,14.063-14.058,14.063s-14.058-6.309-14.058-14.063v-75h-9.375v75
				c0,12.923,10.509,23.438,23.428,23.438s23.433-10.514,23.433-23.438c0-5.17,4.219-9.375,9.384-9.375c5.166,0,9.38,4.2,9.38,9.375
				v35.564l-97.059,97.059c-6.052,6.066-12.647,8.766-19.631,8.03c-5.611-0.591-11.419-3.516-15.928-8.03l-56.236-56.25
				c-16.57-16.589-10.359-34.575-0.005-44.934L167.334,26.758c12.023-12.019,25.448-17.377,43.552-17.377h0.009
				c6.998,0,14.311,1.472,21.722,4.364c9.736,3.802,16.87,8.058,21.82,13.012l9.361,9.375c11.302,11.306,17.419,26.77,17.419,43.547
				C281.217,79.684,281.217,79.688,281.217,79.693z"/>
			<rect x="206.217" y="37.506" width="9.375" height="23.438"/>
			<rect x="206.203" y="70.319" width="9.375" height="9.375"/>
		</g>
	</g>
</g>
<g>
</g>
<g>
</g>
<g>
</g>
<g>
</g>
<g>
</g>
<g>
</g>
<g>
</g>
<g>
</g>
<g>
</g>
<g>
</g>
<g>
</g>
<g>
</g>
<g>
</g>
<g>
</g>
<g>
</g>
</svg>
