<?xml version="1.0" encoding="iso-8859-1"?>
<!-- Generator: Adobe Illustrator 19.0.0, SVG Export Plug-In . SVG Version: 6.00 Build 0)  -->
<svg version="1.1" id="Layer_1" xmlns="http://www.w3.org/2000/svg" xmlns:xlink="http://www.w3.org/1999/xlink" x="0px" y="0px"
	 viewBox="0 0 290.626 290.626" style="enable-background:new 0 0 290.626 290.626;" xml:space="preserve">
<g>
	<g>
		<path d="M196.875,0c-51.694,0-93.75,42.056-93.75,93.75c0,20.573,6.741,39.563,18.019,55.036L6.061,263.873
			C0.445,269.484,0,272.803,0,276.563c0,7.622,6.441,14.063,14.063,14.063c6.642,0,10.58-3.947,12.689-6.061l115.087-115.087
			c15.473,11.283,34.463,18.023,55.036,18.023c51.694,0,93.75-42.056,93.75-93.75C290.625,42.057,248.57,0,196.875,0z
			 M273.469,58.575c-10.688-2.508-20.733-2.948-30.117-1.336c-5.653-8.902-13.847-16.884-24.741-22.237
			c6.309-7.777,12.605-11.653,19.125-15.014C253.383,28.688,265.937,42.239,273.469,58.575z M177.633,11.673
			c6.192-1.448,12.614-2.297,19.242-2.297c10.716-0.001,20.934,2.085,30.37,5.746c-5.836,3.558-11.747,8.348-17.653,16.252
			c-6.577-2.053-13.917-3.248-22.092-3.248c-4.72,0-9.277,0.389-13.706,1.008C174.38,23.575,175.661,17.757,177.633,11.673z
			 M187.5,37.5c22.111,0,37.266,9.802,46.228,22.186c-7.941,2.719-15.347,7.041-22.176,13.017
			c-5.034-9.413-14.686-16.453-28.739-16.453c-1.931,0-3.717,0.141-5.447,0.333c-2.306-5.658-3.628-11.634-3.905-17.986
			C177.948,37.88,182.639,37.5,187.5,37.5z M189.779,75.271c-2.962-3.084-5.536-6.286-7.692-9.614
			c0.248-0.005,0.473-0.033,0.727-0.033c16.106,0,23.438,12.15,23.438,23.438c-0.002,2.311-2.444,14.063-14.064,14.063
			c-0.867,0-1.673-0.042-2.442-0.113c5.189-0.558,11.817-3.333,11.817-13.95C201.563,82.729,196.013,76.537,189.779,75.271z
			 M187.5,84.375c1.739,0,4.688,2.663,4.688,4.688c0,3.08-0.211,4.688-4.688,4.688v8.911c-7.659-1.651-9.375-7.239-9.375-8.917
			C178.125,87.004,180.755,84.375,187.5,84.375z M185.476,111.713c2.058,0.464,4.247,0.788,6.712,0.788
			c5.508,0,9.863-1.589,13.252-3.994c7.383,6.042,12.713,13.322,15.942,21.619c-7.65,4.049-16.336,5.812-24.506,5.812
			c-12.469,0-23.175-4.12-30.689-11.03C173.214,121.678,179.757,117.291,185.476,111.713z M178.581,76.716
			c-6.305,2.695-9.83,8.545-9.83,17.03c0,4.444,2.461,9.867,7.5,13.753c-4.884,4.177-10.425,7.444-16.331,9.82
			c-3.347-5.452-5.231-11.85-5.231-18.886c0-6.009,0.891-14.625,5.166-21.563c2.916-4.739,6.956-7.955,12.216-9.694
			C173.911,70.472,176.105,73.641,178.581,76.716z M151.87,71.958c-0.239,0.394-0.431,0.802-0.656,1.2
			c-6.052-3.037-11.836-7.786-16.453-13.289c1.402-1.725,2.892-3.394,4.491-4.987c6.525-6.526,15.093-11.279,25.007-14.166
			c0.431,6.291,1.716,12.309,3.886,18.033C159.891,61.805,154.823,67.158,151.87,71.958z M166.927,14.967
			c-1.42,5.494-2.306,10.823-2.658,15.984c-12.553,3.202-23.414,9.066-31.65,17.297c-1.177,1.177-2.227,2.438-3.309,3.68
			c-0.956-1.725-1.781-3.459-2.447-5.212C136.539,32.367,150.534,21.22,166.927,14.967z M121.224,56.62
			c0.619,1.106,1.195,2.222,1.903,3.305c-4.168,6.314-7.304,13.158-9.436,20.273C115.047,71.864,117.61,63.951,121.224,56.62z
			 M129.313,67.79c5.274,5.804,11.574,10.763,18.254,14.016c-1.772,6.014-2.259,11.986-2.255,16.627
			c0,8.025,1.936,15.375,5.372,21.787c-9.431,2.161-19.387,2.137-28.941-0.286C117.449,102.45,119.971,83.498,129.313,67.79z
			 M20.12,277.941c-1.931,1.936-3.502,3.309-6.056,3.309c-2.761,0-4.688-2.47-4.688-4.688c0-1.884,0-2.747,3.314-6.061
			l114.384-114.384c2.339,2.616,4.819,5.095,7.434,7.434L20.12,277.941z M139.251,151.379c-6.183-6.183-10.852-13.397-14.114-21.122
			c3.989,0.689,7.992,1.078,11.981,1.078c6.572,0,13.078-0.952,19.345-2.756c5.265,5.938,12.179,10.537,20.293,13.401
			c-3.891,6.844-11.367,17.353-22.022,21.652C149.143,160.088,143.911,156.038,139.251,151.379z M221.198,174.516
			c-7.645,2.306-15.736,3.577-24.117,3.6c-11.48-1.134-22.481-4.238-32.531-9.023c10.57-6.623,17.653-17.273,21.558-24.675
			c3.445,0.586,7.041,0.895,10.767,0.895c9.38,0,18.764-2.006,27.131-6.066C226.06,149.845,225.156,161.723,221.198,174.516z
			 M229.242,124.721c-3.783-8.817-9.638-16.617-17.456-23.128c2.714-4.467,3.839-9.328,3.839-12.53c0-2.255-0.239-4.509-0.666-6.727
			c7.214-7.031,15.084-11.831,23.686-14.423c3.432,7.12,5.105,14.549,5.105,21.15C243.75,105.816,237.807,117.296,229.242,124.721z
			 M232.023,170.358c3.023-12.947,3.15-25.181,0.408-36.192c5.531-4.111,10.28-9.394,13.833-15.919
			c13.997,4.894,20.714,15.586,20.888,22.102C258.503,153.347,246.323,163.767,232.023,170.358z M249.981,109.627
			c2.002-6.042,3.145-12.867,3.145-20.564c0-7.214-1.716-15.263-5.133-23.091c9.094-1.041,18.956,0.136,29.648,3.445
			c2.325,7.711,3.609,15.872,3.609,24.333c0.001,12.623-2.863,24.563-7.855,35.325C269.378,121.261,261.47,113.794,249.981,109.627z
			"/>
	</g>
</g>
<g>
</g>
<g>
</g>
<g>
</g>
<g>
</g>
<g>
</g>
<g>
</g>
<g>
</g>
<g>
</g>
<g>
</g>
<g>
</g>
<g>
</g>
<g>
</g>
<g>
</g>
<g>
</g>
<g>
</g>
</svg>
