<?xml version="1.0" encoding="iso-8859-1"?>
<!-- Generator: Adobe Illustrator 19.0.0, SVG Export Plug-In . SVG Version: 6.00 Build 0)  -->
<svg version="1.1" id="Layer_1" xmlns="http://www.w3.org/2000/svg" xmlns:xlink="http://www.w3.org/1999/xlink" x="0px" y="0px"
	 viewBox="0 0 290.627 290.627" style="enable-background:new 0 0 290.627 290.627;" xml:space="preserve">
<g>
	<g>
		<g>
			<path d="M150,215.446h-9.375c0,9.989-8.761,18.75-18.75,18.75v9.375c9.652,0,18.347-5.161,23.438-12.811
				c5.091,7.65,13.786,12.811,23.438,12.811v-9.375C158.761,234.196,150,225.435,150,215.446z"/>
			<polygon points="151.308,252.946 139.317,252.946 135.694,242.089 126.806,245.052 132.558,262.321 158.067,262.321 
				163.819,245.052 154.931,242.089 			"/>
			<path d="M276.563,126.383h-65.625c-7.753,0-14.063,6.309-14.063,14.063c0,1.65,0.337,3.216,0.862,4.688h-75.862V82.831
				l9.375-0.459v15.886h9.375V81.917l4.688-0.23v16.57h9.375v-17.03l131.48-6.413l-0.459-9.366l-131.02,6.389V58.935l119.005-50.11
				l-3.633-8.644L154.688,48.763v-2.067h-9.375v6.014l-4.688,1.973v-3.3h-9.375v7.247l-9.375,3.947v-1.819H112.5v5.77l-4.688,1.973
				v-3.056h-9.375v7.003l-6.506,2.737l1.819,4.322l0.23,4.683l4.458-0.216v61.158h-5.55c0.525-1.472,0.863-3.038,0.863-4.688
				c0-7.753-6.309-14.063-14.063-14.063H14.063C6.309,126.383,0,132.692,0,140.446c0,7.753,6.309,14.063,14.063,14.063h33.68
				l23.484,113.512c2.695,12.994,14.273,22.425,27.544,22.425h93.08c13.27,0,24.853-9.431,27.544-22.425l23.489-113.512h33.68
				c7.753,0,14.063-6.309,14.063-14.063C290.625,132.692,284.316,126.383,276.563,126.383z M140.625,64.859l4.688-1.973v9.412
				l-4.688,0.23V64.859z M121.875,72.757l9.375-3.951v4.181l-9.375,0.459V72.757z M121.876,154.508h79.687v0.023
				c-37.5,0.239-57.647,18.736-64.017,37.294c-3.145-6.989-8.902-13.083-15.67-17.794V154.508z M156.178,192.008h-8.991
				c6.22-14.152,22.509-27.459,52.308-28.059l-0.67,4.692C177.816,169.311,162.539,177.683,156.178,192.008z M197.47,178.138
				l-0.548,3.834l-0.047,0.661c0,3.853-5.522,9.375-9.375,9.375h-20.527C172.575,183.711,183.08,178.906,197.47,178.138z
				 M107.813,83.516l4.688-0.23v61.847h-4.688V83.516z M107.813,154.508h4.688v14.278c-1.524-0.665-3.09-1.251-4.688-1.79V154.508z
				 M126.609,192.008h-23.484c-3.853,0-9.375-5.522-9.375-9.375l-1.308-9.253C106.786,174.397,120.066,181.789,126.609,192.008z
				 M98.437,154.508v10.158c-2.405-0.389-4.851-0.623-7.326-0.708l-1.336-9.45H98.437z M45.802,145.133H14.063
				c-2.588,0-4.688-2.105-4.688-4.688c0-2.583,2.1-4.688,4.688-4.688h65.625c2.588,0,4.688,2.105,4.688,4.688
				s-2.1,4.688-4.688,4.688H45.802z M210.216,266.122c-1.791,8.663-9.516,14.948-18.361,14.948H98.77
				c-8.85,0-16.57-6.286-18.361-14.948L57.323,154.508h22.364h0.619l4.073,28.495c0.258,9,9.755,18.38,18.745,18.38H187.5
				c8.991,0,18.488-9.38,18.745-18.38l4.073-28.495h0.619h22.364L210.216,266.122z M276.563,145.133h-31.739h-33.886
				c-2.587,0-4.688-2.105-4.688-4.688c0-2.583,2.1-4.688,4.688-4.688h65.625c2.587,0,4.688,2.105,4.688,4.688
				C281.25,143.028,279.15,145.133,276.563,145.133z"/>
		</g>
	</g>
</g>
<g>
</g>
<g>
</g>
<g>
</g>
<g>
</g>
<g>
</g>
<g>
</g>
<g>
</g>
<g>
</g>
<g>
</g>
<g>
</g>
<g>
</g>
<g>
</g>
<g>
</g>
<g>
</g>
<g>
</g>
</svg>
