<?xml version="1.0" encoding="iso-8859-1"?>
<!-- Generator: Adobe Illustrator 19.0.0, SVG Export Plug-In . SVG Version: 6.00 Build 0)  -->
<svg version="1.1" id="Layer_1" xmlns="http://www.w3.org/2000/svg" xmlns:xlink="http://www.w3.org/1999/xlink" x="0px" y="0px"
	 viewBox="0 0 290.626 290.626" style="enable-background:new 0 0 290.626 290.626;" xml:space="preserve">
<g>
	<g>
		<g>
			<path d="M140.627,18.75h-0.001h-4.688C60.985,18.75,0.001,79.73,0.001,154.688s60.984,135.938,135.938,135.938
				s135.938-60.98,135.938-135.938V150h-131.25V18.75z M238.946,159.375c-2.461,54.694-47.714,98.438-103.008,98.438
				c-27.661,0-52.786-10.8-71.316-28.5c8.583-1.716,15.066-9.3,15.066-18.375c0-10.341-8.409-18.75-18.75-18.75v9.375
				c5.17,0,9.375,4.205,9.375,9.375s-4.205,9.375-9.375,9.375v5.142c-16.425-17.4-26.925-40.5-28.027-66.281l-9.366,0.403
				c2.578,60.342,51.947,107.611,112.392,107.611c60.459,0,109.912-47.948,112.383-107.813h14.095
				c-2.475,67.627-58.256,121.875-126.478,121.875c-69.787,0-126.563-56.775-126.563-126.563
				C9.376,86.47,63.623,30.68,131.251,28.209V42.3C72.962,44.672,26.058,91.027,23.542,149.798l9.366,0.403
				c2.302-53.733,45.108-96.033,98.344-98.409v107.583H238.946z"/>
			<path d="M188.667,4.284C177.633,1.444,166.196,0,154.688,0h-4.688v140.625h140.625v-4.688
				C290.625,73.87,248.701,19.734,188.667,4.284z M159.376,9.459c9.131,0.333,18.183,1.646,26.958,3.905
				c20.92,5.386,39.441,15.853,54.473,29.831l-9.97,9.97c-11.892-10.941-26.123-19.383-41.916-24.422
				c-9.553-3.047-19.477-4.711-29.545-5.128V9.459z M166.003,131.251l29.498-29.498l-6.628-6.63l-29.498,29.498v-91.63
				c9.098,0.408,18.066,1.931,26.695,4.683c14.344,4.575,27.295,12.216,38.133,22.116l-25.959,25.959l6.628,6.628l25.959-25.959
				c9.9,10.842,17.536,23.784,22.116,38.133c2.756,8.63,4.275,17.597,4.683,26.7H166.003z M267.01,131.255v-0.005
				c-0.413-10.073-2.077-20.002-5.128-29.55c-5.039-15.787-13.481-30.019-24.422-41.906l9.98-9.98
				c20.152,21.731,32.583,50.377,33.722,81.441H267.01z"/>
			<path d="M117.188,164.063c0-12.923-10.514-23.438-23.438-23.438s-23.438,10.514-23.438,23.438S80.828,187.5,93.751,187.5
				S117.188,176.986,117.188,164.063z M93.751,178.125c-7.753,0-14.063-6.309-14.063-14.063c0-7.754,6.31-14.062,14.063-14.062
				s14.063,6.309,14.063,14.063C107.813,171.817,101.503,178.125,93.751,178.125z"/>
			<polygon points="126.563,220.312 126.563,220.312 126.563,220.313 			"/>
			<path d="M126.563,220.312c0-7.753-6.309-14.062-14.063-14.062c-7.754,0-14.063,6.309-14.063,14.063
				c0,7.754,6.309,14.063,14.063,14.063V225c-2.588,0-4.688-2.105-4.688-4.688s2.1-4.688,4.688-4.688s4.688,2.105,4.688,4.688
				H126.563z"/>
			<path d="M196.876,201.563c10.341,0,18.75-8.409,18.75-18.75h-9.375c0,5.17-4.205,9.375-9.375,9.375s-9.37-4.205-9.37-9.375
				s4.2-9.375,9.37-9.375v-9.375c-10.336,0-18.745,8.409-18.745,18.75S186.54,201.563,196.876,201.563z"/>
			<path d="M103.126,117.188c10.341,0,18.75-8.409,18.75-18.75s-8.409-18.75-18.75-18.75v9.375c5.17,0,9.375,4.205,9.375,9.375
				s-4.205,9.375-9.375,9.375s-9.375-4.205-9.375-9.375h-9.375C84.376,108.778,92.785,117.188,103.126,117.188z"/>
			<path d="M75.001,126.563c0-7.753-6.309-14.063-14.063-14.063c-7.754,0-14.063,6.309-14.063,14.063
				c0,7.754,6.309,14.063,14.063,14.063C68.691,140.626,75.001,134.316,75.001,126.563z M60.938,131.25
				c-2.588,0-4.688-2.105-4.688-4.688s2.1-4.688,4.688-4.688s4.688,2.105,4.688,4.688C65.626,129.145,63.526,131.25,60.938,131.25z"
				/>
			<path d="M225.001,89.063c-10.341,0-18.75,8.409-18.75,18.75s8.409,18.75,18.75,18.75s18.75-8.409,18.75-18.75
				S235.342,89.063,225.001,89.063z M225.001,117.188c-5.17,0-9.375-4.205-9.375-9.375s4.205-9.375,9.375-9.375
				s9.375,4.205,9.375,9.375S230.17,117.188,225.001,117.188z"/>
			<path d="M201.563,70.313c0-10.341-8.409-18.75-18.75-18.75s-18.75,8.409-18.75,18.75h9.375c0-5.17,4.205-9.375,9.375-9.375
				c5.17,0,9.375,4.205,9.375,9.375s-4.205,9.375-9.375,9.375v9.375C193.154,89.063,201.563,80.653,201.563,70.313z"/>
			<path d="M145.313,220.313c0,10.341,8.409,18.75,18.75,18.75s18.75-8.409,18.75-18.75s-8.409-18.75-18.75-18.75
				S145.313,209.972,145.313,220.313z M164.063,210.938c5.17,0,9.375,4.205,9.375,9.375s-4.205,9.375-9.375,9.375
				c-5.17,0-9.375-4.205-9.375-9.375S158.893,210.938,164.063,210.938z"/>
			<path d="M126.563,178.125c0,7.753,6.309,14.063,14.063,14.063c7.754,0,14.063-6.309,14.063-14.063
				c0-7.754-6.309-14.063-14.063-14.063C132.873,164.062,126.563,170.372,126.563,178.125z M140.626,173.438
				c2.587,0,4.688,2.105,4.688,4.688s-2.1,4.688-4.688,4.688s-4.688-2.105-4.688-4.688S138.039,173.438,140.626,173.438z"/>
			<rect x="117.188" y="243.75" width="14.063" height="9.375"/>
			
				<rect x="38.42" y="171.098" transform="matrix(-0.5547 -0.8321 0.8321 -0.5547 -73.3934 312.291)" width="16.905" height="9.375"/>
			
				<rect x="196.875" y="213.685" transform="matrix(-0.7071 -0.7071 0.7071 -0.7071 188.3057 518.6241)" width="9.375" height="13.256"/>
			<rect x="103.126" y="192.188" width="14.063" height="9.375"/>
			
				<rect x="115.247" y="121.875" transform="matrix(-0.7071 0.7071 -0.7071 -0.7071 297.5475 129.8762)" width="13.256" height="9.375"/>
			<rect x="58.998" y="93.751" transform="matrix(0.7071 0.7071 -0.7071 0.7071 88.8278 -17.5724)" width="13.256" height="9.375"/>
			<rect x="103.126" y="60.938" width="14.063" height="9.375"/>
			<rect x="164.063" y="93.75" width="9.375" height="14.063"/>
			
				<rect x="190.246" y="117.184" transform="matrix(-0.7071 -0.7071 0.7071 -0.7071 249.9088 347.2574)" width="13.256" height="9.375"/>
			
				<rect x="194.934" y="46.876" transform="matrix(0.7071 0.7071 -0.7071 0.7071 95.4971 -127.4228)" width="13.256" height="9.375"/>
			<rect x="220.313" y="164.063" width="9.375" height="14.063"/>
		</g>
	</g>
</g>
<g>
</g>
<g>
</g>
<g>
</g>
<g>
</g>
<g>
</g>
<g>
</g>
<g>
</g>
<g>
</g>
<g>
</g>
<g>
</g>
<g>
</g>
<g>
</g>
<g>
</g>
<g>
</g>
<g>
</g>
</svg>
