<?xml version="1.0" encoding="iso-8859-1"?>
<!-- Generator: Adobe Illustrator 19.0.0, SVG Export Plug-In . SVG Version: 6.00 Build 0)  -->
<svg version="1.1" id="Layer_1" xmlns="http://www.w3.org/2000/svg" xmlns:xlink="http://www.w3.org/1999/xlink" x="0px" y="0px"
	 viewBox="0 0 290.626 290.626" style="enable-background:new 0 0 290.626 290.626;" xml:space="preserve">
<g>
	<g>
		<g>
			<path d="M267.188,121.875h-9.614c-2.358-23.653-22.373-42.188-46.636-42.188c-8.953,0-16.936,4.2-22.092,10.739
				c-6.919-17.264-23.827-29.489-43.533-29.489s-36.614,12.225-43.533,29.489c-5.156-6.539-13.139-10.739-22.092-10.739
				c-24.267,0-44.278,18.534-46.636,42.188h-9.614C10.514,121.875,0,132.389,0,145.313s10.514,23.438,23.438,23.438h9.614
				c2.358,23.653,22.373,42.188,46.636,42.188c8.953,0,16.936-4.2,22.092-10.739c6.919,17.264,23.827,29.489,43.533,29.489
				c19.706,0,36.614-12.225,43.533-29.489c5.156,6.539,13.139,10.739,22.092,10.739c24.267,0,44.278-18.534,46.636-42.188h9.614
				c12.923,0,23.438-10.514,23.438-23.438S280.111,121.875,267.188,121.875z M32.813,159.375h-9.375
				c-7.754,0-14.063-6.309-14.063-14.062s6.309-14.063,14.063-14.063h9.375V159.375z M248.438,164.063
				c0,20.677-16.823,37.5-37.5,37.5c-10.341,0-18.75-8.409-18.75-18.75h-9.375c0,20.677-16.823,37.5-37.5,37.5
				s-37.5-16.823-37.5-37.5v-28.125h-9.375v28.125c0,10.341-8.409,18.75-18.75,18.75c-20.677,0-37.5-16.823-37.5-37.5v-37.5
				c0-20.677,16.823-37.5,37.5-37.5c10.341,0,18.75,8.409,18.75,18.75h9.375c0-20.677,16.823-37.5,37.5-37.5s37.5,16.823,37.5,37.5
				h9.375c0-10.341,8.409-18.75,18.75-18.75c20.677,0,37.5,16.823,37.5,37.5V164.063z M267.188,159.375h-9.375V131.25h9.375
				c7.753,0,14.063,6.309,14.063,14.063C281.251,153.067,274.941,159.375,267.188,159.375z"/>
			<rect x="182.813" y="117.188" width="9.375" height="42.188"/>
			<path d="M51.563,129.169V150h9.375v-20.831c0-10.341,8.409-18.75,18.75-18.75v-9.375
				C64.177,101.044,51.563,113.658,51.563,129.169z"/>
			<rect x="51.563" y="159.375" width="9.375" height="9.375"/>
			<rect x="229.688" y="140.625" width="9.375" height="28.125"/>
			<rect x="229.688" y="121.875" width="9.375" height="9.375"/>
		</g>
	</g>
</g>
<g>
</g>
<g>
</g>
<g>
</g>
<g>
</g>
<g>
</g>
<g>
</g>
<g>
</g>
<g>
</g>
<g>
</g>
<g>
</g>
<g>
</g>
<g>
</g>
<g>
</g>
<g>
</g>
<g>
</g>
</svg>
