<?xml version="1.0" encoding="iso-8859-1"?>
<!-- Generator: Adobe Illustrator 19.0.0, SVG Export Plug-In . SVG Version: 6.00 Build 0)  -->
<svg version="1.1" id="Layer_1" xmlns="http://www.w3.org/2000/svg" xmlns:xlink="http://www.w3.org/1999/xlink" x="0px" y="0px"
	 viewBox="0 0 290.625 290.625" style="enable-background:new 0 0 290.625 290.625;" xml:space="preserve">
<g>
	<g>
		<path d="M271.627,48.577c10.453-5.681,18.998-14.925,18.998-22.795c0-9.834-16.875-18.75-23.438-18.75
			c-7.359,0-9.244,8.672-11.063,17.053c-0.661,3.033-1.8,8.302-3,10.458c-1.2-2.156-2.339-7.425-3-10.458
			c-1.819-8.381-3.703-17.053-11.063-17.053c-6.563,0-23.438,8.916-23.438,18.75c0,7.688,8.142,16.692,18.258,22.402
			c-14.484,6.136-22.945,19.744-22.945,38.536c0,73.35-69.117,117.188-135.938,117.188c-14.269,0-30.262,5.316-37.795,19.045
			c-4.772-8.259-12.764-14.358-23.142-14.358C6.08,208.593,0,221.09,0,227.343c0,7.247,8.039,9.53,15.127,11.541
			c2.236,0.637,5.653,1.608,7.462,2.522c-1.814,0.914-5.227,1.884-7.467,2.522C8.039,245.938,0,248.221,0,255.468
			c0,6.253,6.08,18.75,14.063,18.75c7.58,0,16.777-6.459,22.542-15.384c6.141,13.805,19.538,24.759,38.395,24.759
			c27.178,0,50.691-4.144,81.169-14.306c25.294-8.428,46.65-20.63,67.209-38.4c19.439-16.819,35.137-37.209,47.981-62.348
			c13.35-26.133,19.256-49.973,19.172-77.302C290.461,69.291,284.095,55.044,271.627,48.577z M17.686,229.865
			c-2.648-0.75-6.952-1.973-8.288-3.023c0.333-3.047,3.389-8.297,4.664-8.873c11.576,0,18.741,12.154,18.75,23.417
			C32.796,234.156,24.767,231.875,17.686,229.865z M14.287,264.839c-1.627-0.811-4.566-5.897-4.884-8.873
			c1.331-1.05,5.634-2.269,8.288-3.023c7.075-2.004,15.102-4.285,15.12-11.512C32.797,252.915,21.042,264.581,14.287,264.839z
			 M225,25.799c0.328-2.672,9.281-8.447,13.27-9.291c1.008,1.786,2.048,6.577,2.691,9.563c1.884,8.653,4.012,18.459,12.164,18.459
			c8.152,0,10.28-9.806,12.164-18.459c0.647-2.986,1.683-7.777,2.691-9.563c3.998,0.848,12.966,6.633,13.27,9.272
			c0,6.042-15.755,18.75-28.125,18.75C240.769,44.531,225.033,31.846,225,25.799z M263.011,164.273
			c-12.286,24.042-27.253,43.509-45.769,59.522c-19.598,16.941-39.942,28.57-64.041,36.605
			c-29.452,9.816-52.106,13.819-78.202,13.819c-21.314,0-32.813-16.903-32.813-32.813c0-20.738,16.95-28.125,32.813-28.125
			c13.003,0,26.081-1.589,38.784-4.631c11.522,0.159,12.778,16.378,12.778,23.381h9.375c0-12.403-3.066-21.759-8.564-27.239
			c16.734-5.541,32.461-13.734,46.064-24.323c11.039,0,18.75,7.711,18.75,18.75h9.375c0-12.759-7.669-22.997-18.877-26.658
			c12.023-11.241,21.82-24.642,28.402-40.017c7.973-5.133,31.467-2.892,43.411,9.052l6.628-6.628
			c-11.887-11.883-31.955-16.313-45.881-13.702c0.534-1.744,1.008-3.516,1.458-5.302c2.489-1.678,10.298-5.808,27.047-5.808v-9.375
			c-11.363,0-19.336,1.725-24.773,3.698c0.844-5.733,1.336-11.639,1.336-17.761c0-20.855,11.963-32.813,32.813-32.813
			c19.298,0,27.947,11.522,28.031,37.364C281.241,117.375,275.817,139.208,263.011,164.273z"/>
	</g>
</g>
<g>
</g>
<g>
</g>
<g>
</g>
<g>
</g>
<g>
</g>
<g>
</g>
<g>
</g>
<g>
</g>
<g>
</g>
<g>
</g>
<g>
</g>
<g>
</g>
<g>
</g>
<g>
</g>
<g>
</g>
</svg>
