<?xml version="1.0" encoding="iso-8859-1"?>
<!-- Generator: Adobe Illustrator 19.0.0, SVG Export Plug-In . SVG Version: 6.00 Build 0)  -->
<svg version="1.1" id="Layer_1" xmlns="http://www.w3.org/2000/svg" xmlns:xlink="http://www.w3.org/1999/xlink" x="0px" y="0px"
	 viewBox="0 0 290.625 290.625" style="enable-background:new 0 0 290.625 290.625;" xml:space="preserve">
<g>
	<g>
		<g>
			<path d="M177.58,23.4c0.361,0.047,36.206,4.805,58.172,26.789l6.628-6.628c-24.281-24.295-62.034-29.264-63.633-29.461
				L177.58,23.4z"/>
			<path d="M78.387,111.127C100.658,88.842,131.23,75,159.355,75v-9.375c-32.813,0-63.277,14.531-87.6,38.873
				c-10.27,10.28-23.798,28.373-28.969,38.719l8.377,4.191C55.428,138.881,67.967,121.552,78.387,111.127z"/>
			<path d="M168.73,75c18.75,0,39.244,13.05,43.561,17.377l6.609-6.623c-5.827-5.845-31.42-20.128-50.17-20.128V75z"/>
			<path d="M261.116,38.873C235.7,13.444,200.534,0,159.43,0c-37.983,0-66.089,12.619-97.003,43.561
				C42.134,63.867,31.33,93.155,28.503,101.644l0.745,0.248c-3.558,3.788-5.677,8.545-5.677,15.295
				c0,14.911-0.183,16.992-3.309,20.123c-7.434,7.434-8.138,19.022-2.236,27.319c-2.456,9.441-3.82,18.764-3.82,27.558
				c0,31.5,15.97,69.488,38.841,92.377c4.078,4.078,8.227,6.061,12.67,6.061c0.005,0,0.014,0,0.023,0
				c6.628,0,12.084-5.47,17.362-10.748l178.013-178.125c7.458-7.463,15.427-19.645,15.427-31.439
				C276.542,58.8,272.216,49.987,261.116,38.873z M53.994,69.506c-1.481,2.794-2.316,6.169-2.316,10.177
				c0,3.59-5.62,10.608-9.975,13.636C44.951,85.613,49.062,77.358,53.994,69.506z M32.947,117.188
				c0-6.759,2.677-10.162,11.461-14.555c5.869-2.934,16.645-13.87,16.645-22.945c0-6.745,2.63-9.375,9.366-9.375
				c6.094,0,17.433,0,23.189-17.269c1.153-3.469,3.178-5.953,5.705-6.998c2.053-0.853,4.359-0.736,6.488,0.333
				c5.316,2.658,11.47,3.356,17.325,1.955c5.705-1.364,10.331-4.631,12.389-8.742c1.467-2.934,3.534-4.697,5.972-5.091
				c1.927-0.314,3.942,0.309,5.255,1.627c10.922,10.927,26.025,9.314,33.516,5.569c3.206-1.603,6.042-2.077,8.236-1.369
				c2.203,0.713,3.511,2.545,4.214,3.961c5.93,11.864,17.953,11.967,27.863,12.052c4.158,0.038,9.113,1.678,9.113,9.291
				c0,4.823,3.53,10.28,7.209,14.18c-2.555-0.023-5.569-0.956-8.892-3.717c-18.98-15.83-43.209-24.53-68.255-24.53
				c-0.108,0-0.22,0-0.328,0c-35.977,0.108-74.934,16.8-101.672,43.561c-9.656,9.661-18.131,21.112-24.98,33.319
				C32.928,125.344,32.947,121.73,32.947,117.188z M254.487,95.123L76.475,273.248c-3.567,3.567-7.997,8.002-10.748,8.006
				c-0.558-0.042-2.728,0.005-6.047-3.319c-20.916-20.934-36.098-56.995-36.098-85.748c0-29.681,16.392-66.023,40.786-90.436
				c25.055-25.073,61.481-40.711,95.072-40.814c0.098,0,0.202,0,0.3,0c22.852,0,44.958,7.931,62.269,22.355
				c11.1,9.244,22.931,6.52,29.733-0.291c7.013-7.012,9.436-19.889,0.122-29.939l-6.867,6.375
				c4.997,5.391,4.252,11.864,0.919,15.984c-3.703-2.916-6.848-8.016-6.848-9.797c0-11.072-7.397-18.572-18.652-18.67
				c-10.186-0.084-16.111-0.445-19.312-6.862c-2.133-4.266-5.583-7.35-9.717-8.691c-3.188-1.031-8.433-1.533-15.314,1.903
				c-3.267,1.636-14.452,4.439-22.697-3.806c-3.455-3.464-8.48-5.039-13.383-4.252c-5.461,0.886-10.031,4.491-12.858,10.158
				c-0.661,1.317-2.827,3.009-6.178,3.811c-3.656,0.881-7.65,0.431-10.955-1.223c-4.538-2.264-9.731-2.494-14.269-0.609
				c-5.077,2.1-8.986,6.609-11.011,12.694c-3.623,10.861-8.813,10.861-14.302,10.861c-6.567,0-11.517,2.142-14.705,6
				c4.013-6.084,8.447-11.859,13.336-16.748c29.353-29.372,54.689-40.814,90.38-40.814c39.122,0,71.1,12.155,95.058,36.127
				c10.561,10.57,12.68,17.33,12.68,24.811C267.167,77.672,262.189,87.413,254.487,95.123z"/>
			<path d="M65.736,225c-7.748,0-14.058,6.309-14.058,14.063c0,7.754,6.309,14.063,14.058,14.063
				c7.749,0,14.058-6.309,14.058-14.063C79.794,231.309,73.489,225,65.736,225z M65.736,243.75c-2.583,0-4.683-2.1-4.683-4.688
				c0-2.588,2.1-4.688,4.683-4.688s4.683,2.1,4.683,4.688C70.419,241.65,68.319,243.75,65.736,243.75z"/>
			<circle cx="56.37" cy="178.125" r="9.375"/>
			<path d="M103.156,140.625c0-10.341-9.427-18.75-18.802-18.75v9.375c4.688,0,9.427,4.205,9.427,9.375S89.609,150,84.444,150
				c-5.166,0-9.338-4.205-9.338-9.375h-9.375c0,10.341,8.381,18.75,18.713,18.75C94.776,159.375,103.156,150.966,103.156,140.625z"
				/>
			<path d="M136.006,159.375c-7.748,0-14.058,6.309-14.058,14.063c0,7.754,6.309,14.063,14.058,14.063
				c7.748,0,14.058-6.309,14.058-14.063C150.064,165.684,143.755,159.375,136.006,159.375z M136.006,178.125
				c-2.583,0-4.683-2.1-4.683-4.688c0-2.588,2.1-4.688,4.683-4.688c2.583,0,4.683,2.1,4.683,4.688
				C140.689,176.025,138.584,178.125,136.006,178.125z"/>
			<path d="M168.8,121.875c-5.166,0-9.398-4.205-9.398-9.375s4.641-9.375,9.328-9.375V93.75c-9.375,0-18.708,8.409-18.708,18.75
				s8.428,18.75,18.759,18.75s18.759-8.409,18.759-18.75h-9.375C178.166,117.67,173.961,121.875,168.8,121.875z"/>
			<path d="M89.052,210.938c0,10.341,9.366,18.75,18.741,18.75v-9.375c-4.688,0-9.366-4.205-9.366-9.375s4.678-9.375,9.366-9.375
				v-9.375C98.417,192.188,89.052,200.597,89.052,210.938z"/>
		</g>
	</g>
</g>
<g>
</g>
<g>
</g>
<g>
</g>
<g>
</g>
<g>
</g>
<g>
</g>
<g>
</g>
<g>
</g>
<g>
</g>
<g>
</g>
<g>
</g>
<g>
</g>
<g>
</g>
<g>
</g>
<g>
</g>
</svg>
