<?xml version="1.0" encoding="iso-8859-1"?>
<!-- Generator: Adobe Illustrator 19.0.0, SVG Export Plug-In . SVG Version: 6.00 Build 0)  -->
<svg version="1.1" id="Layer_1" xmlns="http://www.w3.org/2000/svg" xmlns:xlink="http://www.w3.org/1999/xlink" x="0px" y="0px"
	 viewBox="0 0 290.626 290.626" style="enable-background:new 0 0 290.626 290.626;" xml:space="preserve">
<g>
	<g>
		<g>
			<path d="M151.373,137.311l-22.467,22.467l-19.153-19.153l20.123-20.123l-6.628-6.628l-20.123,20.123l-20.123-20.123l-6.628,6.628
				l20.123,20.123l-19.153,19.153l-22.467-22.467l-6.628,6.628l22.467,22.467l-8.405,8.405l6.628,6.628l8.405-8.405l19.153,19.153
				L75,213.684l-20.123-20.123l-6.628,6.628l20.123,20.123L48.25,240.435l6.628,6.628L75,226.941l38.873,38.873l6.628-6.628
				l-10.748-10.748l21.497-21.497l20.123,20.123l6.628-6.628l-20.123-20.123l20.123-20.123l-6.628-6.628l-20.123,20.123
				l-21.497-21.497l19.153-19.153l17.78,17.78l6.628-6.628l-17.78-17.78l22.467-22.467L151.373,137.311z M124.622,220.313
				l-21.497,21.497l-21.497-21.497l21.497-21.497L124.622,220.313z M103.125,185.559l-19.153-19.153l19.153-19.153l19.153,19.153
				L103.125,185.559z"/>
			<path d="M225,0h-65.625c-41.189,0-70.345,16.148-89.273,49.275c-1.927,3.356-3.225,6.605-4.031,9.516
				c-26.962,6.038-49.069,22.706-61.298,47.166L4.8,105.97C1.659,111.928,0,118.805,0,126.563c0,19.744,5.484,30.464,18.75,36.056
				v104.569c0,13.809,14.822,23.438,28.125,23.438h112.5c8.086,0,16.491-4.031,21.989-10.823l0.075,0.075l18.75-18.75
				c1.102-1.097,10.748-11.063,10.748-22.064v-4.688H225c8.086,0,16.491-4.031,21.989-10.823l0.075,0.075l18.75-18.75
				c1.102-1.097,10.748-11.063,10.748-22.064v-95.65c3.502-3.52,6.736-6.984,8.494-9.422c5.18-7.2,5.569-16.898,5.569-30.867
				C290.625,24.703,263.672,0,225,0z M181.331,154.931l-3.206,1.064V262.5c0,11.048-9.881,18.75-18.75,18.75h-112.5
				c-8.85,0-18.75-6.014-18.75-14.063V155.995l-3.206-1.069c-11.62-3.872-15.544-11.03-15.544-28.364
				c0-32.625,35.245-37.5,56.25-37.5h75c21.005,0,56.25,4.875,56.25,37.5C196.875,146.278,191.865,151.415,181.331,154.931z
				 M201.563,239.061c0,6.048-5.78,13.197-8.002,15.437l-6.061,6.061v-97.927c3.684-1.523,6.703-3.417,9.211-5.719
				c0.783-0.708,2.578-2.339,4.852-4.463V239.061z M205.8,135.375c0.267-2.728,0.45-5.602,0.45-8.813
				c0-29.789-23.92-46.875-65.625-46.875h-75c-12.084,0-22.622,1.477-31.57,4.242C48.661,72.08,67.581,65.625,89.063,65.625h70.313
				c30.591,0,52.181,12.923,56.344,33.731c2.559,12.82-0.736,24.769-3.895,29.156C210.469,130.383,208.276,132.82,205.8,135.375z
				 M246.958,98.677l-3.206,1.069V206.25C243.75,217.298,233.87,225,225,225h-14.063v-81.586c3.497-3.516,6.731-6.98,8.494-9.427
				c4.969-6.895,8.442-21.638,5.48-36.473c-5.091-25.448-30.202-41.264-65.536-41.264H89.063c-4.223,0-8.358,0.272-12.417,0.741
				c6.858-15.628,25.945-24.178,54.605-24.178h75c21.005,0,56.25,4.875,56.25,37.5C262.502,90.029,257.491,95.166,246.958,98.677z
				 M267.188,182.811c0,6.048-5.78,13.197-8.002,15.437l-6.061,6.061v-97.927c3.689-1.523,6.703-3.417,9.216-5.719
				c0.825-0.745,2.597-2.362,4.847-4.458V182.811z M277.445,72.263c-1.406,1.955-3.591,4.388-6.028,6.905
				c0.277-2.742,0.459-5.625,0.459-8.855c0-29.789-23.92-46.875-65.625-46.875h-75c-12.305,0-22.313,1.448-30.502,3.811
				c15.38-11.972,34.781-17.873,58.627-17.873H225c36.22,0,56.25,22.172,56.25,37.5C281.25,60.497,280.679,67.772,277.445,72.263z"
				/>
			<path d="M206.25,42.188v9.375c29.086,0,32.813,10.022,32.813,18.75h9.375C248.438,51.652,234.245,42.188,206.25,42.188z"/>
			<rect x="187.5" y="42.188" width="9.375" height="9.375"/>
			<rect x="168.75" y="42.188" width="9.375" height="9.375"/>
			
				<rect x="84.376" y="255.872" transform="matrix(-0.7071 -0.7071 0.7071 -0.7071 -33.575 511.0922)" width="9.375" height="13.256"/>
		</g>
	</g>
</g>
<g>
</g>
<g>
</g>
<g>
</g>
<g>
</g>
<g>
</g>
<g>
</g>
<g>
</g>
<g>
</g>
<g>
</g>
<g>
</g>
<g>
</g>
<g>
</g>
<g>
</g>
<g>
</g>
<g>
</g>
</svg>
