<?xml version="1.0" encoding="utf-8"?>
<svg xmlns="http://www.w3.org/2000/svg"
	xmlns:xlink="http://www.w3.org/1999/xlink"
	width="18px" height="18px" viewBox="0 0 18 18">
<path fillRule="evenodd" d="M 9-0.01C 4.05-0.01-0.01 4.05-0.01 9-0.01 13.95 4.05 18.01 9 18.01 13.95 18.01 18.01 13.95 18.01 9 18.01 4.05 13.95-0.01 9-0.01ZM 7.2 13.5C 7.2 13.5 2.69 9 2.69 9 2.69 9 3.96 7.74 3.96 7.74 3.96 7.74 7.2 10.98 7.2 10.98 7.2 10.98 14.04 4.14 14.04 4.14 14.04 4.14 15.31 5.4 15.31 5.4 15.31 5.4 7.2 13.5 7.2 13.5Z" fill="rgb(243,67,53)" opacity="0.87"/></svg>