<?xml version="1.0" encoding="utf-8"?>
<svg xmlns="http://www.w3.org/2000/svg"
	xmlns:xlink="http://www.w3.org/1999/xlink"
	width="25px" height="21px" viewBox="0 0 25 21">
<path fillRule="evenodd" d="M 24.5 10.89C 24.5 13.84 20.72 20.94 11.34 20.94 5.86 20.94 1.22 16.76 0.51 14.48 0.51 14.48 0.5 14.37 0.5 14.37 0.5 14.37 0.5 10.5 0.5 10.5 0.5 10.5 0.51 10.5 0.51 10.5 0.5 10.37 0.5 10.24 0.5 10.11 0.5 8.87 1.32 7.02 3.59 7.02 8.19 7.02 10.03 6.22 12.97 2.93 14.76 0.92 16.47 0.06 18.7 0.06 22.71 0.06 24.5 3.17 24.5 6.25 24.5 6.37 24.5 6.5 24.48 6.63 24.48 6.63 24.5 6.63 24.5 6.63 24.5 6.63 24.5 10.89 24.5 10.89ZM 1.27 14.3C 1.96 16.35 6.34 20.16 11.34 20.16 20.16 20.16 23.73 13.62 23.73 10.89 23.73 10.89 23.73 9.69 23.73 9.69 21.77 14.38 16.78 17.46 10.95 17.46 6.53 17.46 3.3 15.39 1.74 13.45 1.57 13.23 1.41 13 1.27 12.76 1.27 12.76 1.27 14.3 1.27 14.3ZM 18.7 0.84C 16.69 0.84 15.2 1.59 13.54 3.44 10.46 6.9 8.41 7.79 3.59 7.79 1.76 7.79 1.27 9.31 1.27 10.11 1.27 11.08 1.65 12.1 2.35 12.96 3.79 14.76 6.81 16.68 10.95 16.68 16.85 16.68 21.84 13.38 23.36 8.45 23.47 8.06 23.73 6.94 23.73 6.25 23.73 3.55 22.17 0.84 18.7 0.84ZM 18.7 10.5C 16.13 10.5 14.05 8.42 14.05 5.86 14.05 3.3 16.13 1.22 18.7 1.22 21.26 1.22 23.34 3.3 23.34 5.86 23.34 8.42 21.26 10.5 18.7 10.5ZM 18.7 2C 16.56 2 14.82 3.73 14.82 5.86 14.82 7.99 16.56 9.73 18.7 9.73 20.83 9.73 22.57 7.99 22.57 5.86 22.57 3.73 20.83 2 18.7 2ZM 18.7 8.95C 18.7 8.95 18.7 8.18 18.7 8.18 19.98 8.18 21.02 7.14 21.02 5.86 21.02 5.86 21.79 5.86 21.79 5.86 21.79 7.57 20.4 8.95 18.7 8.95ZM 11.73 8.95C 12.79 8.95 13.66 9.82 13.66 10.89 13.66 11.95 12.79 12.82 11.73 12.82 10.66 12.82 9.79 11.95 9.79 10.89 9.79 9.82 10.66 8.95 11.73 8.95ZM 11.73 12.05C 12.37 12.05 12.89 11.53 12.89 10.89 12.89 10.25 12.37 9.73 11.73 9.73 11.08 9.73 10.56 10.25 10.56 10.89 10.56 11.53 11.08 12.05 11.73 12.05ZM 15.21 10.89C 15.21 11.84 14.97 15 11.83 15.9 11.48 16 11.09 16.04 10.66 16.04 9.12 16.04 7.2 15.44 5.74 14.71 3.96 13.82 2.05 12.14 2.05 10.11 2.05 9.39 2.35 8.18 4.37 8.18 4.37 8.18 4.37 8.95 4.37 8.95 2.98 8.95 2.82 9.62 2.82 10.11 2.82 11.79 4.51 13.23 6.09 14.02 7.75 14.85 10.19 15.56 11.62 15.15 14.16 14.43 14.44 11.93 14.44 10.89 14.44 9.66 13.97 8.72 13.06 8.12 12.67 7.85 11.58 7.33 9.96 8.14 8.67 8.79 6.17 8.92 5.15 8.95 5.15 8.95 5.13 8.18 5.13 8.18 7.14 8.12 8.81 7.85 9.62 7.45 11.59 6.46 12.98 7.14 13.49 7.47 14.61 8.22 15.21 9.4 15.21 10.89ZM 16.59 11.31C 18.33 10.44 20.02 11.68 20.09 11.74 20.09 11.74 20.35 11.93 20.35 11.93 20.35 11.93 20.2 12.22 20.2 12.22 19.71 13.2 17.98 14.75 15.66 15.13 15.66 15.13 15.31 15.19 15.31 15.19 15.31 15.19 15.22 14.85 15.22 14.85 15 13.97 15 12.11 16.59 11.31ZM 15.91 14.29C 17.63 13.9 18.83 12.84 19.32 12.17 19.01 12 18.48 11.78 17.89 11.78 17.58 11.78 17.26 11.84 16.93 12.01 15.88 12.53 15.85 13.7 15.91 14.29ZM 12.45 19.01C 12.45 19.01 12.55 19.77 12.55 19.77 12.15 19.83 11.75 19.86 11.38 19.86 9.2 19.86 7.73 18.99 7.65 18.95 7.65 18.95 8.05 18.29 8.05 18.29 8.07 18.3 9.91 19.37 12.45 19.01ZM 14.95 19.37C 13.78 19.76 13.35 19.78 13.27 19.78 13.27 19.78 13.27 19 13.27 19 13.27 19 13.65 18.99 14.7 18.64 14.7 18.64 14.95 19.37 14.95 19.37Z" fill="rgb(255,255,255)" opacity="0.37"/></svg>