<?xml version="1.0" encoding="utf-8"?>
<svg xmlns="http://www.w3.org/2000/svg"
	xmlns:xlink="http://www.w3.org/1999/xlink"
	width="18px" height="18px" viewBox="0 0 18 18">
<path fillRule="evenodd" d="M 9.9 5.4C 9.9 5.4 8.1 5.4 8.1 5.4 8.1 5.4 8.1 8.1 8.1 8.1 8.1 8.1 5.4 8.1 5.4 8.1 5.4 8.1 5.4 9.9 5.4 9.9 5.4 9.9 8.1 9.9 8.1 9.9 8.1 9.9 8.1 12.6 8.1 12.6 8.1 12.6 9.9 12.6 9.9 12.6 9.9 12.6 9.9 9.9 9.9 9.9 9.9 9.9 12.6 9.9 12.6 9.9 12.6 9.9 12.6 8.1 12.6 8.1 12.6 8.1 9.9 8.1 9.9 8.1 9.9 8.1 9.9 5.4 9.9 5.4ZM 9-0.01C 4.05-0.01-0.01 4.05-0.01 9-0.01 13.95 4.05 18.01 9 18.01 13.95 18.01 18.01 13.95 18.01 9 18.01 4.05 13.95-0.01 9-0.01ZM 9 16.21C 5.04 16.21 1.79 12.96 1.79 9 1.79 5.04 5.04 1.79 9 1.79 12.96 1.79 16.21 5.04 16.21 9 16.21 12.96 12.96 16.21 9 16.21Z" fill="rgb(255,255,255)" opacity="0.55"/></svg>