<?xml version="1.0" encoding="utf-8"?>
<svg xmlns="http://www.w3.org/2000/svg"
	xmlns:xlink="http://www.w3.org/1999/xlink"
	width="48px" height="48px" viewBox="0 0 48 48">
<path fillRule="evenodd" d="M 26.85 36.34C 26.85 36.34 15.5 25 15.5 25 15.5 25 26.85 13.66 26.85 13.66 26.85 13.66 29.5 16.31 29.5 16.31 29.5 16.31 20.8 25 20.8 25 20.8 25 29.5 33.69 29.5 33.69 29.5 33.69 26.85 36.34 26.85 36.34 26.85 36.34 26.85 36.34 26.85 36.34Z" fill="rgb(243,67,53)"/><path fillRule="evenodd" d="M 24 46C 36.13 46 46 36.13 46 24 46 11.87 36.13 2 24 2 11.87 2 2 11.87 2 24 2 36.13 11.87 46 24 46M 24 48C 10.75 48 0 37.25 0 24 0 10.75 10.75-0 24-0 37.25-0 48 10.75 48 24 48 37.25 37.25 48 24 48 24 48 24 48 24 48Z" fill="rgb(243,67,53)"/></svg>